<mxfile host="app.diagrams.net" agent="Mozilla/5.0 (Windows NT 10.0; Win64; x64) AppleWebKit/537.36 (KHTML, like Gecko) Chrome/133.0.0.0 Safari/537.36" version="26.0.11">
  <diagram name="Page-1" id="O3EFxFTkG5y4PaQwKtpk">
    <mxGraphModel dx="1864" dy="743" grid="1" gridSize="10" guides="1" tooltips="1" connect="1" arrows="1" fold="1" page="1" pageScale="1" pageWidth="850" pageHeight="1100" math="0" shadow="0">
      <root>
        <mxCell id="0" />
        <mxCell id="1" parent="0" />
        <mxCell id="UMgLE48t6Uz4dZOfTjDk-1" value="Enterprise" style="rounded=1;whiteSpace=wrap;html=1;verticalAlign=top;arcSize=5;" vertex="1" parent="1">
          <mxGeometry x="160" y="330" width="230" height="200" as="geometry" />
        </mxCell>
        <mxCell id="UMgLE48t6Uz4dZOfTjDk-2" value="Paid (Freemium)" style="rounded=1;whiteSpace=wrap;html=1;verticalAlign=top;arcSize=5;" vertex="1" parent="1">
          <mxGeometry x="400" y="120" width="230" height="410" as="geometry" />
        </mxCell>
        <mxCell id="UMgLE48t6Uz4dZOfTjDk-3" value="Open Source" style="rounded=1;whiteSpace=wrap;html=1;verticalAlign=top;arcSize=5;" vertex="1" parent="1">
          <mxGeometry x="160" y="120" width="230" height="200" as="geometry" />
        </mxCell>
        <mxCell id="UMgLE48t6Uz4dZOfTjDk-7" value="" style="shape=image;verticalLabelPosition=bottom;labelBackgroundColor=default;verticalAlign=top;aspect=fixed;imageAspect=0;image=https://logos-world.net/wp-content/uploads/2023/10/Microsoft-Copilot-Logo.png;clipPath=inset(0% 18.67% 0.89% 16.67%);" vertex="1" parent="1">
          <mxGeometry x="177" y="363" width="57.91" height="50" as="geometry" />
        </mxCell>
        <mxCell id="UMgLE48t6Uz4dZOfTjDk-11" value="Agentspace" style="text;html=1;align=center;verticalAlign=middle;whiteSpace=wrap;rounded=0;fontStyle=1" vertex="1" parent="1">
          <mxGeometry x="199.86" y="487.22" width="60" height="30" as="geometry" />
        </mxCell>
        <mxCell id="UMgLE48t6Uz4dZOfTjDk-15" value="" style="shape=image;verticalLabelPosition=bottom;labelBackgroundColor=default;verticalAlign=top;aspect=fixed;imageAspect=0;image=https://s5.ezgif.com/tmp/ezgif-5be1468a06c194.png;" vertex="1" parent="1">
          <mxGeometry x="316.69" y="346.11" width="70" height="74.27" as="geometry" />
        </mxCell>
        <mxCell id="UMgLE48t6Uz4dZOfTjDk-17" value="" style="group" vertex="1" connectable="0" parent="1">
          <mxGeometry x="240" y="357.63" width="70.69" height="82.37" as="geometry" />
        </mxCell>
        <mxCell id="UMgLE48t6Uz4dZOfTjDk-10" value="" style="shape=image;verticalLabelPosition=bottom;labelBackgroundColor=default;verticalAlign=top;aspect=fixed;imageAspect=0;image=https://vertesiahq.com/hubfs/AI%20Provider%20Logos/Bedrock-600x240.svg;clipPath=inset(2.5% 34% 22.5% 32%);" vertex="1" parent="UMgLE48t6Uz4dZOfTjDk-17">
          <mxGeometry width="70.69" height="62.37" as="geometry" />
        </mxCell>
        <mxCell id="UMgLE48t6Uz4dZOfTjDk-12" value="Bedrock" style="text;html=1;align=center;verticalAlign=middle;whiteSpace=wrap;rounded=0;fontStyle=1" vertex="1" parent="UMgLE48t6Uz4dZOfTjDk-17">
          <mxGeometry x="5.349999999999994" y="52.370000000000005" width="60" height="30" as="geometry" />
        </mxCell>
        <mxCell id="UMgLE48t6Uz4dZOfTjDk-18" value="Agentforce" style="text;html=1;align=center;verticalAlign=middle;whiteSpace=wrap;rounded=0;fontStyle=1" vertex="1" parent="1">
          <mxGeometry x="321.69" y="410" width="60" height="30" as="geometry" />
        </mxCell>
        <mxCell id="UMgLE48t6Uz4dZOfTjDk-19" value="" style="shape=image;verticalLabelPosition=bottom;labelBackgroundColor=default;verticalAlign=top;aspect=fixed;imageAspect=0;image=https://upload.wikimedia.org/wikipedia/commons/thumb/8/8a/Google_Gemini_logo.svg/2560px-Google_Gemini_logo.svg.png;" vertex="1" parent="1">
          <mxGeometry x="193" y="460" width="73.73" height="27.22" as="geometry" />
        </mxCell>
        <mxCell id="UMgLE48t6Uz4dZOfTjDk-20" value="CoPilot" style="text;html=1;align=center;verticalAlign=middle;whiteSpace=wrap;rounded=0;fontStyle=1" vertex="1" parent="1">
          <mxGeometry x="175.95" y="410" width="60" height="30" as="geometry" />
        </mxCell>
        <mxCell id="UMgLE48t6Uz4dZOfTjDk-21" value="" style="shape=image;verticalLabelPosition=bottom;labelBackgroundColor=default;verticalAlign=top;aspect=fixed;imageAspect=0;image=https://seekvectorlogo.com/wp-content/uploads/2019/07/uipath-vector-logo-small.png;clipPath=inset(31.79% 2.14% 31.79% 0%);" vertex="1" parent="1">
          <mxGeometry x="294" y="466" width="65.1" height="24.23" as="geometry" />
        </mxCell>
        <mxCell id="UMgLE48t6Uz4dZOfTjDk-22" value="Agent Builder" style="text;html=1;align=center;verticalAlign=middle;whiteSpace=wrap;rounded=0;fontStyle=1" vertex="1" parent="1">
          <mxGeometry x="283.83" y="487.22" width="85.45" height="30" as="geometry" />
        </mxCell>
        <mxCell id="UMgLE48t6Uz4dZOfTjDk-27" value="" style="group" vertex="1" connectable="0" parent="1">
          <mxGeometry x="410" y="150" width="60" height="74.26999999999998" as="geometry" />
        </mxCell>
        <mxCell id="UMgLE48t6Uz4dZOfTjDk-25" value="" style="shape=image;verticalLabelPosition=bottom;labelBackgroundColor=default;verticalAlign=top;aspect=fixed;imageAspect=0;image=https://www.appengine.ai/uploads/images/profile/logo/Relevance%20AI-AI.png;" vertex="1" parent="UMgLE48t6Uz4dZOfTjDk-27">
          <mxGeometry x="6.389999999999986" width="47.22" height="47.22" as="geometry" />
        </mxCell>
        <mxCell id="UMgLE48t6Uz4dZOfTjDk-26" value="Relavance AI" style="text;html=1;align=center;verticalAlign=middle;whiteSpace=wrap;rounded=0;fontStyle=1" vertex="1" parent="UMgLE48t6Uz4dZOfTjDk-27">
          <mxGeometry y="44.26999999999998" width="60" height="30" as="geometry" />
        </mxCell>
        <mxCell id="UMgLE48t6Uz4dZOfTjDk-28" value="" style="shape=image;verticalLabelPosition=bottom;labelBackgroundColor=default;verticalAlign=top;aspect=fixed;imageAspect=0;image=data:image/png,iVBORw0KGgoAAAANSUhEUgAAAf0AAACjCAYAAACAP8e7AAAAAXNSR0IArs4c6QAAIABJREFUeAHsfQV8VFfa/glQNypQ37oXhyQjEQjadlu6LdQoroXK+rfy/Xe7vtuudeuOleLuHjfiAYIFd4I7yfPf5z3nTC58oSVhJkJvfr/zu5M7M3funJm5z/s87/O+Ryn3z50BdwbcGaibM/ClUgpnjL1KqeJzGNlKqcXfMJrXzSlxz9qdAXcG3BlwZ8CdgQtzBioC/TODgKr+H3thTpn7rtwZcGfAnQF3BtwZqJszMPkMll9VgK/oeS7o183vhHvW7gy4M+DOgDsDF+gMUJ6vCLCDse/OC3TO3LflzoA7A+4MuDPgzkCdnAEX9Ovkx+aetDsD7gy4M+DOgDsDlZ8BF/QrP2fuM9wZcGfAnQF3BtwZqJMz4IJ+nfzY3JN2Z8CdAXcG3BlwZ6DyM+CCfuXnzH2GOwPuDLgz4M6AOwN1cgZc0K+TH5t70u4MuDPgzoA7A+4MVH4GXNCv/Jy5z3BnwJ0BdwbcGXBnoE7OgAv6dfJjc0/anQF3BtwZcGfAnYHKz4AL+pWfM/cZ7gy4M+DOgDsD7gzUyRlwQb9OfmzuSbszUIMz0K1bt/rRY5beHjsxq327OUX9289Y8Va7matGx85cO6PtrNVL2s1ck9525pr8djNWr2o3a01621mr58ROX/1J2ymFb7adXDAwbmxW+6Zz1zSuwbfgvrQ7A9/VGeDCOsHovlfRMb6rc+q+b3cGLqwZaP/RuGs6Tc54pv2MvH+0m1mY2m5W0dG2s9ei3Zy1kO3stWg7pxjtZq9D7JxitJ27Hm3nFss+2T9nLdrx8TNWI276SrSfuhwdJuRx5LUfn/NZzFe5L7Qat/Z7F9asue/GnYFaOQMu6NfKj8U9KXcGanYGwjpPXNImblrBm3HTCzLbzio6ETt7LWIJ8hxziw24FyN23nrEzt+A2PkbEbNgE2IXbkIst3bM5+2NaDtvI2LnbdDBAYOAWasRN6MIHaYsR8fJBeg4Maesw4T87A4Tcj+NmZTXxz95RSv1WzSo2WlwX92dgQtuBlzQv+A+UvcNuTNQxRnoNDG1bfupOf+Jm7F8a1uydoK7gPpGDeoE9kWbEbNgM2IWbUHMkq2IWbod0fE7EJ24C9FJuxGduAdRSXsQxW3ibkQl7EJ0/E49Fm9DDMeiLYhdsFmO2Xb+Rq0IzKVSsAZxM1ej/fQitJ+2HO2nFB5vP6kgOW5S/vB2Ewve6Dw+N+6BRFxVxbfnPs2dAXcGlHJB3/0WuDPwXZ6BrpMXN+wwI/PHbWcWZMfMXY/oBZsQvWgrohdv02PpDkTHb0e0bHl7pwb0lBL4U/fBn7YfUekHZetPO4Co1P16f8o++JP3Iiq5BNFJJYhK2I1oCQB2SKAQs2Q7YhZvReziLYhdyKGDgNi5G9F27gZJEbSbs06nBQKBwErETS0si5u8fFXHSXmzO04q+HO78Xnd2k3Mbal+i3rf5c/Rfe/uDJzjDLigf44T5T7MnYELagY6TF3kazc7Z0zM/OKjBOAogjmB2bDzqKTdGtyTSwS4/QTxtIPwZRyCf9lh+DPtOAQ/92UchF/An9sD8BP8UzToC/NP2oNoHp+sf+lOxCx1gP8SKgBbEbOIwwQBCzZBVID5G9B2nvYI0ENA34CkBqYXIW6a8QdMKUT7SfnHO0zMT2k7qfCz2PF5g6K+WtlUAWEX1Ifmvhl3Bs5/BlzQP/85dI/gzkDdmYG4GWlRsQtWzY9J2C5gHkVgJmMnqKfs07fT9hvmfhC+TIL8EfiyOI7Bt+wo/MuOwsd9mRyH4U83AQDBX4D/AKJ4LDJ9gj2lfmH5Dqk/fieE7cfvQMzi7YhdopUFyv+xi7YilqkDDgYBTCVQDTC3RRWgZ4AeATENrkPbWWsQZ3wC7aeuQIcphYibnH+4w+SCpLjJhR/FTigcHDuu0N9o3M4r686n5Z6pOwNBnwEX9IM+pe4B3RmohTPQYerU1rFL1s2LSt5TFkVQt8w8/RD8BPaMQ5rFZx7WgJ51FL7sYxrouSXQZ2nA98v2CPyZRzTrF7A/hCjK+wT7lL0i6RPsqRzonP4OYfiSJli6E9EJJs/PrfmfagPVAPEC0BfAtAADh5S9kioQ5YC3ZX+JCSj4eBNMLNkhKYkYpgoWbEQsAwJWDVAVmLqcqQHETSkoazupsCBmUuGkthMLXon5uqCNqwjUwi+se0qhmgEX9EM1s+5x3RmoDTPQecyYO9styB0flbKnjJI82bkw9Uyy9XIg17ePwZd9HL4cMyzok+EzCDDsXqT9ZUe0rM+ggQEEc/sG8JkmCBj4BNS1F0DAn4w/AOy7temPKQQqDalUGg5otSDjMPwZPN/yIa+bfgi+NL4exwGtSFCpSN6njyWvvVvSFdH0DVAlYPXA7GK0m74K7Qj+k/LRfmIe2k/IRYcJOYibkLMvbnzevHaT8v4nalJejBqHi2vDZ+eegzsDIZgBF/RDMKnuId0ZqPEZAFRY+1lJr0Yn7zpARu7LskB+XAO7AXdv9gn4ck/Cl3NCj9wT5fcL2FvA16Dvz9BgH5VxCFEmdy/MPrEEUfGapYthj2AvAL9LmHu0MPc9OqWQTOZOkKcJ8IAOHiRVwCDEBB7Zx+GVwf+PwSsphaPlKQUJCg7BZ9IJAR8BwT+QVqDKQBVgB2LoGxDD4CZdLcCeAQwAtB8AHSbmoOP4bHQan40OY5ed6DA+O6H9pPy34sbld4iYtefqGv9A3RNwZyA4M+CCfnDm0T2KOwO1ZwYenzTi0ej49YlRZMm5BPsT8BPMZRDgT2qgJ9g7htcCP5l+1jH4OUz+Xli2M2fPFIGw6xL4E3R5nj9hN/zWAJhkTHzC/g3Ak5HT4Eeg5rEkGDkKL0HdvLY394S5fRLeHA38ErAYtUH8BdZLwGMwLREwENKLYE2Ehv1TRRBfga4eEAMhPQRSNmh8AWwoRJPgTDYPKtINhBgMsH/ApDx0FDUgvzBuQt7kDhPzfxk3qbBz63ErH3DTArXnO++eyTnPQEWd9IKxj8GE++fOgDsD1T0D7eZl/tyfuvukn9K8AXlv7kn4BdxPwZt7Cr68U/Bxm1+qb8v/JgAQ8C0HfTHr0bwnbn0a9Q5paZ0sXcrzWKJnhsjtxsUvDN7I8BbkmRKwhkAqDQR4Z9CRe1L+l302AOHj6CEQX8ER+DI4tPQv8r/xE5RXDhwsPx9jTpTSQRoWTwP/nWIgZMWANgrq/gOx0kxok2k2xIZCbDq0EdHzNiCGg70L2IFw5mq0m7HqWNtpRZltpxVNjJ28+o1OEwva3jm5uGF1f+bu67kzUIkZCAbAV3QMF/Qr8SG4D3Vn4LxnIHbcezfFLiyYLsw3xwmmFuAN2OeVwptXKoDvJejnc3+pDgIcACy5fQFcK+9rtz6ZtjbwaW9AgHkv04+jyU/8AUYhEB+ANQVKSoHnxlSCBngGIAR5LwOPwG2Tbsg+rtUGgr4jvy8qgRgPD8PHHD+DAAYjMg6KoVB6BojPgIoDAV8z/oDXgNUDCfQa6BEV2O6EP3EX/Il74E8ugS95H3zJe+FN2Qdv2n540g7Am34AXm5TOfT9vqQS+NnLYOGWMv+CzXne+Zs+883d9FLE9E33nfeH6x7AnYHgzUBFgB2MfS7oB+8zco/kzsA3z0CniV+3jE7cvNGffdTk5QmoFuQ16BNUNdiXwVcA+ArK4OVgEJBvAgGrAFjwd7JtArYdJmUgPgDzWHm9sz2Px7GpBQF4y+gN4Ff0PKYWrIxPMM84DPoIdFrgsK40sIxf7tfGPqkgoCFQmP3e8s6AzO3bSgH2JJC+BLuMkXCvGAJ96QfkuN7Mw+Ih8GQdgyf7GGRrb2cfhyfrODw5x+HhbefgYzgyj8KbcRje1P3wJeyBb9H2jdFzNo72zFjXrVEh3JLBb/46u/eGdgaCAfAVHcMF/dB+bu7R3RnQMxA3L/V1f8quE9p1bxmzQ7Y3rN6Xr8HeWwjIKOCW+8x+uZ+3yf7LhP0L+z4jeJCUQIEJFEzg4DPHEeWAjyfI0zjIIeyevgKbPij3Edj8fXnu/piuLrDM3aQLoqS8UAN/wFtA5m+DAOPkF6A3Jj5bQSBlgFISSEPfLqkqoMzvT90rXgAqEWIYzD0BT/4pCYA8+aXw5JXCk3tKg/qyo/BwZHF7BJ7MI2Z7WLZeHiOz/DE8HoMBehUkQJBA4Ai8KfsRGb/rqGfxtvGt52x6RmXicvd77M5ANc9ARYAdjH0u6FfzB+m+3HdsBn77W1Wv7Zxlf43KOFAmwEoGbXP0uaXwcpDBcxDYLdgvB7zLIf8H9hXq/71GAbAgbtUA/h8IFvjcFYB3BeAzx5L77GsT8EWWN058GvCsYiDA76gSsIEBH8NSQsnPG3mengFpEsSyPFPGl35Qs316BNIPBPoCUIaXXv9JGtSlVbC0Dd6JqKXsNMgKgj3SIZDPY/pBAg6CO9/bCsDDsRzwFAKe/DJ4ck5qoE8/KJK+J2UfZCTvhSe5RGR9b8peeFL369uy3S/Sv4fPyTgET4YOCnTAwADABAYZNgDYvT9q/oZRTeaXNPmOfX3dt1tzMxAMgK/oGC7o19xn6r7yhT4DT/71yavazUsbL/l7yuaU5SU/X6qZu4C9ZvEWrANAvVIDNoHODt4n9ztA3AI6wdDL53AUAb6VBHsGEuY1ndI88/rLTHMf6QdA4x5z/ZbxE/BtmsA0/HGAvZ81+sYUSJmetf9Siiegz/vY29+68k2eXmr+NYvXTYAM0Ju2wszl+1P2a1afdQzevJPwLi+DbxXgtaNIB0KS7sg9qSV6AndSCTwJu+CJ31k+EnbCG78T3qV6nzdhF2Qk7YYncTe8DAiSSsQD4EmlD4AegIPwMgjIPAxPhlYKvFQLGBTQF5CwG23i9yx4eElJlwv9u+u+vxqfgYoAOxj7XNCv8Y/WPYELcgY6zfno5raL8nPEBU/AJYsXaZ6svkyG/E9mb1g5gZqAbYf8b4Hc3mf/t8GAc39RGbzL6RHQBkEvUwCSFtBpAJHuKeNnHtXleJJjPxTo7OfnfQR+C/jOMkAptyOTJ3MnuzfAHwB6XSUQlWya/1j53q4RQMne5ugTmaPfXb5WQPpBw+pPgpK9BDkEegH5MviKyiSI0d6GU/AyKMg8JMzdk7AbnqXb4Vm8FZ6Fm+FZuEW23kXcboFn8TZ4F2+Fd/E2fXvJdnj5+KU74GVgkLgbnqQ9OgiwygDVAJoAGQSIGnAQogrwduoBeXyrRTtzH5234+kL8svrvqnaMAPBAPiKjuGCfm34dN1zuLBmoOOYz2+PTigukva4YsAz+XjJrZtcvQF7ATgycwKcYbSB23afDQQM4PN++xjfKgYTZObGHEiXv00RcEvQzz0lNfWazR+Fj0w97QB8HAR+Ov1tVz8xARqHPzv7Sd7+oK6xl5I+x4I9wvL1sbTEb0oCWfNPk54sAqT7AOiV/Lh+AM142ogneXrW+BugJ6v3rS4fMh9UNbJPwMs8PvsEkImn7tfsfukOeAju8zfBM3cDvPM2wDNvA7xzN8Azdz288zfAu2ATvAs5NoOBgHfxFniWbIV3yTZ4GQBQDSD4UwlIogJgAoAUVgLshZcVAVQCUvfp12VAwOoAnkPCLrRYuju95dLdD11Y32D33dSCGagIsIOxzwX9WvDhuqdwAc1Au+njbo1OKl4l+XvJ02uQJxDLIKsnkNl8uwG6AOA7pWwL9jYY4GPN4/0rSuHL0dK7NMwhq7dgb7wAUgVAlcHUzovLnkCetBc+gq/tssd9Iu8T7HWzH13OZ8r+TItd2/ufJj0dDDgW8JH+AMz3m9p8yeeb9QLktm70Q6Dna0j5H42GTFnwPa0BotYC/jUG9BngMEhizj7tMLwZzNkflDy9sPsl2+FZsBme+RrgPbPWwTN7LTxzimV4560vDwIYCDAgmG/AXwKAraIOCPCT9RP8ORKZBtitt1QAOBLNNrlE+wQkINgHD30DSSWIWLLjeOsFW//oGv4uoB9yzb+VYAB8RcdwQb/mP1v3DC6UGWg/bvj3opM3rWL3PJrtrGx/2paAbyR5slqvg9kK+BHguc8CvAF5YcBrAP/KUgPi2uRGj4CAowV8vm5eGfz0D7B1L8E8sMTuId0eN2EXfGyIQ7Oc5PQ12JcDvmb6BH7d6c9sWcfPWvxAPf8xSEqAhkBJDZR3B7SL/RDk5fE8DxoFWZLIKgKqFasB/1ogep0BfL5vBjqcI2H2x4XZS+6dgEwAJkBTqidwE8hnrYN31hp4Z62GZ9YaeGavgXf2Wnhnr4NnbrEwfmH9VALmb5ThIfsX1q9lf834DfDb3L+A/y5447UXgKyeqQBRBBL3wMORxFGitzQhzttSfI8r+V8oP+eafB93KqUqAuxg7Ftck2/MfW13Bi6YGYidNeq2qJTNqwSsnDl6y+itCc/B3q2U7Sf4nQn+TuDn/WuYlz+u8+/MuQcMgVZJMM5/qeFn0xzdIU8WwpGGOWZ1vrRD8LGpDY14mcznE8QdC/iIU9+APBUCkfu1k98v7v6TGrjFlOjsMcASP1YE2DUBdC9+OQ9TsSBgTrA3rD5mnQF8BjPcL2BfKqkIGui8aQe1xE75nYBN0GWOngxfZHwD+DNXwzNzFTwzVwv4E/SF9Qvwr4fXSP2eeRvhXbBRS/0Lt8C7SMv8Pkr9S5nr36EHAwy5baT/eAYEJijgfmdgYI2BDALid9FHUBY+c8Nv1G9R74L5crtvpLpnwAX96p7x8389fmZul8/zn8e6cYSu/+zdMCa+IIu18yJX25w7Gb3DcGfz8JTyyeS9Vsp2Ar4FexMIiNxNdi/s+rhuh2vYvZXzpWSPJkEGArmndP9+Arbpjqc74xl5nbXySXt0hzwa9RgcmPI9Lb0bb4A0CaLz31Yc6CoDeU2TPtCvrw2K0jzIBhy2UoB+BnoKCOZFWrqPXgvEFJtBOZ9zwePxPbHdL2vp6aRnZz0yezryadKbU6zz8ARrBgCU8cnwZxTBM2MVvNOL4OVWgH+NDgDmrIWXwzB+neMn6BumL6DvyO+Lyc8Avw0AjPFPBwXlgYFn8XYBeUkJJOyU/D5VAQ/Pd9E2NJu7ce4NU1feUje+wRfUWfLiy9FcKRV7xuA+3lfb/3iOwWD1FR3DZfrB//QJ9nsdnxlTKJznyUqpL/77cr/97/2vK6W6mu8jv4dugBD8z6H6jth2YdpoMnwpk3MCPm87zHcBsHdK9gT5M8BfmD/ZL/czd88cOFv2CrsmkDLfbXLe1p1v6++FbZsyOzHilbe9lb73dMpz9TzeR9DP0nl4BhXSdpdNgphLP6PmX4IXgjcB2g76FMzrW9DXHQZNhQJTDiZnz3w9wT52PRBLhs+ghveZvL2APd3yAvYlOqe+dKcGejJ7SvZk6QT8ucVawifDn74KHgL/tCIBfv3/KnhnUeIn4K+DZ846zfapDthjLNoMr7D9LfDS2EcFIV47+71LLfM3/xP4eb9VA+T2DniXcPAxVhnYIVUBBP7IRdvgmbFubbMJqx+pvm/id+aVeNHs/d8L57/MhTX7jItuRWB35j5epO2FmRdkBgi15ULsgn7d+yp/6QD9M79r3/S/DRD4XXQDhLrwuccmrfy1sGHWxRsGLyyeMr5T2uf9RtqXx4lkX+5Ul/y+CQYI9jJYgsdWsWTAljVLBYBpzWvZPYGaAYEw9hNm0Ru9+I4sxGNNddZQl7ZfO/dpvqMjnsycQQNBnMDuVCdM0CLgzf283/gHtMKg1wew/fh1LwLTJGilYffrgBiCPRn+WiCKwRCPwddlaiFDl99J7p4SPqV0AitBmbl7yvPTV8E7Z40Gfcr2ZPQzLNCvhGfqCninrYB3+krN+GdouV/UAIL/vOLTgX/hJvh47MVG5mdZH2V+vu7/GVYNoOOft00wQG8Bz5X/S4pABwJSDkij4cKtiJi9ftf9s7e1qQvf5Vp6jgRiAjIBnhdGJ6P6potpVe/ja5CZMbCoqT8X9Gtq5qv+uvyOVvU7dy7P4/fS/avpGWg/a3xPf+7hU8LwHYAfYPdW3jeAL+Y1Av+q03P4p+XzLeCvpnP9uF6+1rbctaY92ToW48mzLXNNPl3q682a9mT04rY3OX0ugMN9lP+NsU46+VmwtyBvtwR6+z7IzC3oS8Ch1wQIAD5LAxk8UAmwcn4x0NYAfjTfG+dC2P0J6Lw9pfy9Ol/PXDrBk2BPsx0H2TlBftpKeGcWSTmeMHhK+VNXCtB7pi6Hl6Av2+XwEPj5eCv909zHVMDsdfBa1k/GzyGM37B+4+qnyU/y/JT/7ZBafwK+Nf9t1czfBgpUAUwvAM+SHfAs2QYPgX/RFkTOKd7x4OzNnpr+vtah1yfQk31XB8h/0wWXLOw3NZAScEG/Dn1ZzanyOxvqgLS2KFF179MJxhn75s//nn/Z7pKApG9B34KllcANmDpZ/mmOfYe8L3K+AX2R2mXRGwKpM2+uF92xcrq49MmYbUMdMmcui0vgpzNfSulYRqdXuZP9BuwD+XYHsw909bNg7wB8kfZF0meFgFYXhK1LDl+fpygBq7Qb3ynnR3F+2GGPXgGmK8juk5m3L9GlcgKQWw3QbwRL7jwsuyNQU8afVADv9BWSy2funszeM6UQ3kn58EzMg2dyvjzGMykf3smF8EwpgHfacv0YKgDTVsAzXef/xfQ3h+V92uEvr8WafqYObLAhAQBVAMcg8Dt9ALwdUAi0GmCbAektGwLppkHhM9fuu3NScUwwvnsX8DHIlmoa6M8WBDA/y/Orjj8X9KtjloP/GlSjzvb9Ccb+N4J/yu4Rz2kGunVT9WMSs+YFSs/I3AlqlK0NG9YmN8OMGQA42b7DrCf5fJvTN4DvW1EmTFzAnrl7MnsOSvhsTysgaxfGMT3y6bKXHD2XzGUtvGH6psY+sM866Smvn8HuJTDhedrAxQQDtvWvvKdASoHpBAYbxs1P9s73uVoDPnP3bSnn06kvcj6bBJ2UVfGk013AqLerXMon6JLZ07RHRs68/Mw1AtZeAvuUfPlfAJwgPz4H3rHL4OH4OhORX6Uj8qs0RIxJR/hojjQZEaPTETEmA5F8zLhl8jwJFKYUgioBgwAp+WMagK9ravz/bxDAdIABepsWOE0J2GZKAXWKQABfZH5WG2xE5LRVex75el2zc/qSfXceZFk9WXUwLoyhPgb9A0+F+OP5roI+3zfNbvRrMMXCHDcHAy4Gg3bY/dYgx2CsJtMx9uvgSvx2Ji60bezSjF/52NOeAOkAfLJkAX1jcJOFcSzjZzBA8OMg6JucvtO0x5p1YfsEdQK85O+Z+zYAGyiH00vgSlMe20EvAPqsldfA7880AYDpuCfBggFnydFbcDdAL2DvBHrD8kWup7HPdPcjeGvA53noBYR4PL6XaMr5G8oB38r5VCJEzg+Y9bQzX0B0wWbdPY8GPYIuwXfmGu3EZ95+ciEivl6GyIk5muFPyBWQbzMqFc2GJ+HBz5fito8X4ob35qLhOzNxxT+n4+K/TUSDP41F/T+OQYM/fY2L/zIel/9tAq74x1Rc9+5s3PrxQtz7xVI0H5GEiK8zEDkhB5GTC/TxZxZJvb82ABaXKwBk/9YHQPC3RkCrAFAVoKxv/xdvwBbdNXDBRnhmr0P4xMKNV05a0/hC+01U4f0Q7Cmdh1oSDVUQQAAiSIXi77sC+gRJpnEI6sH4HvAY/FzIuBk81IQcHoz38U3f2Zp4T8H6jjNIY0DHwc+eg9/1UP2OgnPencdNfcCfvfeIBfyAeY9gTvAkyBMcmdsmK3aa4/gYm8837D5g2qPBbS0Nbqb2nc/joIwuBj3K9qy9N7XzgR755Y11hOk72b5trmPNegRuy+5NEOKxwO8Ae3kf/J/vxQYwPA8GH7kndUkgz4ngTwWCx1pzOuCLO5/Pp5zP5WszD0spno/5e7a7FbOekfPZOEfY/VqdexfAZxneSgF87/gcNB+RjDZfZwj4P/plEm77aCEu++dMNPjzBKhffwk14I9Qjw+AivoBVPN2UPe1hrqrCdTdzaHubQH1QGuoFrFQ0U9DPdkfqs+voV7/O8L+3xe4/O1JuPH9ubjvi6VoOToNkROyJT0g3gB6AZgGIPuvsK0v5XsaDtnnn13+dDqArX6lRTDbBC/YJEzfO2c9PDPXoOnEFUvV9O/0cr380dcVZv9NF2De988QgMuFDPq80BOUQw2O9nNjENCrGoHFlfgrhlr+5u1n8k1bXhc4rKrjLHu0yo4zaKDCw99LaIKhbkrVj0kryPBSfqecT7buyOWLyc0CvimvkwDAAK1l+WLcs4Y9uyXgL9c98oVRE2y5MI+w+/IOeQL6krc/qhvn8LYAve6GJ/lyC/ymtl967/N4BsgDeXsH4Mt9TuDnOZslfG1aQTN8k04gw7d9CdYAbLQj5XjFgM7fa4WC58N+AV72rE8p0S1uadgjCybDn2Py9mT3M7QjX0x7U5bDMzEfnnHZaDUyBde/Px8PfLYY1707B/X+8DXUoL8izP8swu5sCnXpVVAqDCqsPlS9+lD1G0A1uATq4suhLrpC38/HXH4t1FU3QF3dCOram6C+9xBUy7ZQj/WC6vMrqJ++i4v+Mg6NP5iHJiMSETE2E5GT8hBJPwC7/Un5H8F/owB5oKc/gZ49/bngj+3vT4OgAP5meMjy6VGYu16XHk5dgUfG5X+qFMIq/n1csHv5A+WP+Zt+9HXxPl6kCGbB+uOxQjUPlMar+8+qOkyNhOp9nctx+d2jAhDKv1B+dnyPfA918a86gnwGd8H9i1m05DWR9Z2M3ZnLF6Cmwc3k20WiN6VwZMNk+WT4Buhtr3lh+5LH58Iypq0ut2TSdNlbkOeSuPI/ZXsO0ydfgN8+zrFlwECGzkCEIM5hgF22Rr4/bZ9h9wL4cg7aRyBqgygOx6XzHgMTBg88d0r6AvhUKzgffB2eO8+Xhr20/XrhGinHs7X3dOav1wyfgE9GzVp7mu4vM5GJAAAgAElEQVQos4/PQZvRGXjgiwRc+q9ZUL8ZjrBh/0CDqGdxReM70TCsHhophZuUws1K4UalcL1SuDIsDPXD6mnwb3Ax1EWXQV1yFdRl10Jdfp0G/KsbQzW8Geram6Guvx3qxrug7mkGFd4RqutAqCF/gnpzOK7693Q89EU8IsYuQyQ9BNNWatl/XrFm/gsJ/kbyF+OfowrArvgnLN+sD2A7Bc5YhcgJ+bhjTNF3aZU+SvnncmGuy4/hewzGXyiBozpB34J9dbH6c/3uEICCDxDln3wo3y+PHRpWW37+wb51riz/XD+/ih7HzzS4f50m/vHmqMztu4UlW9C3LJ9gvhzwE1yzTe05gTjnBPy2/p0AaXP5JndPwBTgX1lmyuf0Eryy9C4DBpPDF7bsYO9eAfyjYorTcr+W/OVxlNKZ32eTHqntNzXxBHMGHmZ7GtCb/RIU0OBHQDfufJH0CfYG8L1ctpcMfyUQRYZPw55puCOtdNlXn42Elh3VDv0UAr5h+Gxmw3w3F76xgE+wZwvd6SvFae+ZkCeGu4e/SETDd+cg7Dej0eD7r+DqG+/F7WH18JBSCFcK7ZVCV6XwolLooxQGKYVhZgxUCt3CwhAVFobbG1yMBpdcCXVZQ6grG0FdfSNUw1ugrrsN6vo7oBrdBdXoTqgb74G69SGou5pCtWgL1aUn1KDfo96bw3H9u7PQjLn/8VmInFooPQKYnxfmzgV/COwyyPS5vC+3m/T7ZEqADH+WaQ1MxYDVCFNXoNVX2XuuGFd4U3C/qbXuaJTeLkR2X9GFh/v4Xs83R3khgD5z9aEEv7PNf2X2hwr8Qy3xh9pIGuyLSB1l+fFZn/iWl2ojngPshb0XAVE0suWdEhMdF6mRFe0orxN8qQAY0x+BUpi92UoO33Tbkxp3AVydO5dcOAGcJW4cBFK2qbXufO4jyEsrXV3TL+Y+AXxjBORrE+jNINhbKZ/nJHl7MnM+jkELJX16EWwOXxz6J/RrGNMen0fToS3JY8Od/wP46YfgS90PHwHfNNxhe1oxwtGlb0vxyJ4pn0/MR+TYLDQbnoJG789H/f/5HFf4uuHWhreiiVKIVQrPKgUC+q9UGN6qVw+fXHopvr6mIWbceBMW3Xk3kh96BBnNWiGrVTiy23iQ1ToCyU1aYMb9D+PPt9+Nro1uw21XNdYMX4D+XqibCPb3Q936INTtD0Pd/gjU3c2gHgyHiugM9fQQqNfeQv0/j8FtHy1A+Jh0RE7O00EKmbtd1IeS/0ID/iL/U9LfwBr9csCXNQLYRbBI9xUYn4v7Ry4bq3DByvwEr9p+4a8MSJzrY3mROx/gr8ugXxeDPKof5/N5nQmSofz8+B2sTrXmzPdW2f/rJsuPm/r3tr6cI6UC3Jblc4U849z3U5rnAjHpB7RDnR30CJzicifbPyUtZ5n/l0EvALvtSac9434n2FNO56D5TZ57vDxvb2X+TNs+1xj6CPCWiXPL5/H5fH3Trlfkdgv8Nq9vth7TXY9yvngJqExYwDfnr4+vc/gMGATwye7XA+ylL4DP8+e691Qh0k2HPWH4u/TiNdJ0x7j0uTIey+SmFcHDmvpxOWg+MhW3fLQIF705BtdEvYh7L74SPqXwjGHvvwsLw6eXXIKpNzRC0gMPosDjw4bOj6Pkmedx6MVeON6zP071HojSvoNR1m8IyvoPAfoPBQa8grKBw1A24BWc6DsEB57vhZROT+FXzbx49M6HoW66z4D9o1B3NIW6qxnU3S2g7mkF9UA4VPO2UO26Q/X8BdSvPsE1785CixFJ2u0/dQUiubofgZ+Mn6v+yRK+lPM3iFtfFv4hu7cdAqloMNBh34EJeWgzOh2Nhmc9W9lfUh14/HdBzv+mIIDAX9UyslCCRigBoy6w+7N9ZsFm/aFktwyk68pfKOfBfpbBT9VEJ2WnsbGMgBuBm8BP4KZczyVgKWGn6WVqRdo2XekC7WrZlIbyv5XRBViZK2f+3ixKI6Cvgd+65HXDHZOjD+TyTQ1+9jFx0UtwQOAnQNNd7zQQkr2bIdK9zelza4MA3rbBAY2DAVmfZXnlpj2qACLprzX5+w26pS5L8iQdQLWCLYMzDsKbapru0KXPhWto2qOxjZK+MexJfTyl/DGZuOezeFz6l8lo2GUwHr7qZnRSCv3+m//9bVgYPr/0Usy++WZkNGuO9R27YG+3F3D85b4o6zdYAB2DXoWMwa8DQ14zg7c53gBeeQN49UfAqz8pH8N+JPtPDRiGwmd64M++Trjz/pba6X9Pa6j7w6EeiIB6yAv1sA+qWVuoqKehur0O9cN/46K3JuL+z5cgfNwyRE4pRCQBPcD6i2VxIPmfrv+ZaxBpmwJR0WBfADYQmpAL79hseL/KwEPDU9ZfYG7+7zrg24sRL85VAf66BvrMMTOYsO+7Lm9ZjRGMPzrNQzkP/I7U9r+6yfLbzxz+lC/3mM6HG5ZvF86h296Tsg8+sy49l6GVhXeMpC5Aa81yZksQDoCsvZ1vpXWW+lHat330LdM3y+RaI5/I+bb1rmNrAZ9qAUGa+XW+BgHeIevbAMB5LqIM2GBEAggN+F7K+zzeGTn8gKTP15EcPpUOvWAO15j3cj36QA/9zZoJMw/OBXLYFGd8NprRlf/ePFw65J94pPGDkqN/Qyn8u159TL7uWmQ0aYqNnbrg0Asv41SfQcCAocBgC+xvGGA3AM/9gfGqedzrwNA3AIL8az8GXv8J8BrHT832J8CwHwNDf4iTA4ZhSpdn4WkSBXVfuAF8P9Qj0VBNYqFadIDyd4XqOghq6N8Q9uexuPPTRWgzNkPq+yPJ4MnoZ61BpIy1mt0zIOB97CBIVYNNhsbnwPP1MnjHZMAzJh2tR6Sg0fBlw2r7L/gcz48XzVBe7OrasasC/HUJ9CmL17QrP9jfCb6f8zXLhfIz5Pulb6C2/9U9lv/9gepyf9qGlbLiHHPydsEcgv+KUs1oDcOXnDtd+6YW3ubNncY/uU1Z3UrqFvRtaRxz6sK02XWv3Dxnc/q6X75ZCpcAb6R8YfcMFOwyuOzVb/PzNgCxWzJ7jsBr6yVzpa2vqcPncbWCUA74Tpd+QNKnMnAG4HuT9+iyvKU7IK1oaWqj5D1rnV4Nb3IhIsdl4a7P4nH5H8fjDt/z+H6DS/FDFYb3GzTA3FtuwgqvDyVPd8PJ3v2BQUMFlAnMMsjchcW/phm+ZfqDhgEDhwHccp8EB69rpj/shxr4X/0xIMOCv92a/UN/iLKBr2Lm919Ck6YxmuU/GgPVNE6DfuvOUFHPQD01SBz+YX/4Co0/mo/Wo1MRwdK+KcuF9Quzn16EyGlFsq8c7LOleyC7BnJ42EFwdBoiRqbgwc8Stt0wdeVVtf1X/C3n5wJ+xQEPgb8yOeNQAkYw5X2+p+q4sAcb1M/leHxflfnMKvpphNLAWtsl/upg+cEvX2w3a+4QybuTJZOpW9BfBXhpVLOSvrjl6bwn2JY75J3Pkefa4xjgFaZt5XcBabNaHgFdDHR04ptFdKxZT1h4uZSva+iNrG/SBboxkDkXE2AEXous3wI+lQC+rvERBNIK9jXI/E2nPTHtUdJfp9MboiRIDt8w/NR9EIafYBvvmIVzCPiUvilxT8xD+FcZuPHDRbhq6DuIuuFeDFEK/6pfD9Ovvw754eEo+UE3lPYZqGV6yvLCzAnKPzKg/7oGdgL8wKEa6KkAOAHfBgKU+xkkcJDtc/A4sjVATwWAr8FgQF7rJ8DQH6F0wDC81+VZ3NC0HVTTtlDN20O17AgV/gRUdDeopwZDDf4T1O9G4Yb356LVqGRETMiW0r5ISvhTl4v075mUB1YksN9A5FcZiBiVisjRqQgfmYLIEcmIHJUio+XwRDT+OPnNiq4cdWSfK+lXDPgWYCoDInUB9C9kwHd+ZufD+L/LEn91BIP8nQTvr5tHXeZP27yWACkGPgP6wvZzj0ntuV6tjq55C/ind+CTZjw2UBB1wKwvb/Lplm2L4U6Md6brHY14ZNCSU6fE78itMyDg/WZrAV7/b/rzE6wliDDyvmX5DEictw3gi7fAKgdk+Tw+Axgn4JuV8qQZUUDSPwoPJX3m8B0ufWlFyy51FvBpXJuQi5YjU3HNO7Nx5xOv4/kGl+PNMIWxV16BrGZNsPupp3Gy9wAN9gTf139aLscTpMn0mbcXsB+mpf7+r+itgL4D+PmYwZbtG9C3Mj9ZfwD4TRAg/1sVgPt+rAODV97Aupf6oWObLhr4KfG36gwV8QRU2+egnn4FavAfBfiv+2AuWoxMQsS4LEROzEXkpHxETsgVVYM9/yO4DsDIZLQZlYLWw5OE3ZPhR4xMRgS7DY5Ixn2fxu9q9F7hlcH7FlfbkVzA/2bAtyBC2fhc/mo76H8XAN/5mVUV+DlP9jih2NZWib9usvz2s6b29eUe11L4mb3pUw/osjmyb5HYDcgaQJXyOJMOOA34TV6djvkA87bSPoHa5NQprZcb9E4HfAv2sqWcL+kA81yR9ynz6/Ox3gEGF4HX423r1KeJkI8VWd+UCYrzvxzwpfHOBiCWnfZYsUCVgIv+sHTQ9tFP3gtvwi54zNK4bEsrbnauZEfAn5iHB75MxqV/nozmrZ7CMBWGD+rXw4JbbkFxu3Y49mJPLeMT7N/4mRk/1eA7VJvuRNIngx9AwH8FoDufWwK+E/SF8VvAp7xvJH6CvqQIGECQ7VPyN7K/VQGcCoDs+zHwyg9xsv8r+HVcV9Szuf1WnTTwx3aHenoo1NC/QP1+NK5+fy6aj0hEm6/SEfl1OiLHZOhFf0amoM2IJLQckYRWXyYK4LcamYxw1v6PIvDz/mQ0+yIBN32aGXwn6rnATNUfE0qACsWFsqaPeS5GMXaNC9V5kn2e79+FlsP/trk+n5RIKCV+suna+FcHWX43dWVU8sZikesNUNtyPS9d9CybE8C3AFvOoAXw+RwyezOYy5fn2254BoQFfOkB4LDgTdA1oC8KgjB+a9Y7HeQlD+8MFqzznjI/8+3C9k0NvpX0JcgwtfiU9U2gwEV9JNAwDJ/9B6LYWtcB+FL6x3MTlz477e2DJ7kEHgF8ncNnYxrN8NeJeS1yfC7u+yIJV/9yBLrc2hz/qxS+vuJyZDVvjpKuP0BZ34EafN/4KWCHldsJypLDZ/7+NcPyh2rA78eSPII/gf+VcgUgkNN/tdzNHwB++gIM+FvQlwDAKAl2XyAIMI8f/DrKBgzF8C7P4fKA1N8JKvxxqJhuUF2HQA35M9TvRuKyd2fh3s+WoNmXiWgxPBEtvkxCq+FJaP5lAloNTxCW3+LLRAH88FHJaEPwlwBAA/89HycsU79Fvdr4S67gnL5LjO/bgKEy93+bLBlKpnS+oP9d9W1UdVlbPq8y343KPrYq1SEV/JSDtiuU3107N8HP5bedMauvL+dYoHudON8J3MtL9cIxlN0phxMgTT28n0DucMlLWZ8Ffgv6cgxHgEAgpnOfxyBgC+umvG5AnmkDY9aTfZJ7L1cEtDJgn2eMfPY4AujGpGdK8sj8tezvOIZNExD0+RyeE536ppc+u+1Fs5EQAxkGE7bTHnvpJ++Fhzn8pbqXvnSim6dXkyPDjxyfg7s/T8Q1P/8c3a67C38JC8OM6xtipdePI8/30Ll55tQJ9pTzA2Bv2D0Bn5I+TXlk+WTxwu4N07eA72T6AdCny9/B9G1uX0CfwG8Ggd6aBO1W9pm0gDxPn0PZgGGY++RLuF7MfW21ua9NZ6iYZ3WOn8D/mxGox5X8PpiH+z9dgoe+WIqmXySgOYMAMv3hSWg9IhkthychfAQBP0VGxKhk2d/0i3hc+Z+UbwOFoP1Cz/NAoWQx9gd+IW6/TeYP5YXzfEA/lOdV2z/nypox7U+LqYFQvrfz+TztOQZzWx0sn2QjuH/Ryavzpf7e5N4F9Al6ZPkEZEdtfSBHbgA/UB7nAHoBTD7fBAbyGD5epHYa6Qj6xownIG/c+wbwxdQnjN48xgHsOvAwIM7H8DiW/TP3boISMRhKTp+BAHP/DtOglfT5eAI+a/G5PK6jFp/nKBUKgV76JfAk7oaHLn0uJ8vFZdiJju1mCfjjcnDnp/G47tX30PvqW/F+vXpYcsft2NSpM0726qdBV5g95XwCvpHzybItQAdK8KxT35j3CPxk+lbeF0OfI6dv8/mytcBvyvd4bAF3mvuc+X4L/mafrRCQczDpgkGvSpOfhU+9iKsfiYKiw581/DT4RT+jGf+gP0H9djjC/jkV138wD/d9ukSW/m3yZQJaCttPQovhZP1JwvIp+xPwhe2PZL4/Gd/7JHl8cL/RITkaG7GE8mJ2rsfmxZjBByVYXgB5XgQnO7iPw67Jzsef67FD8Tiex7ddtEIJrlUFCVfVqfpiN6EMjoPPeqt+uQjl99b+Fs8n1VLxO4sb+057X9ahMmHEBGo72GCHkj7ZsDXJCYiWgzmZvqwffwbgW9A/Hez5PLMEL4/nBH2CfaDhju6wF2i8YwHfbvNLdX9/kxaQsj0L/FJNYPL7Ru6XHL4oFA7QN4/j6oEszWM//XZG1j/NuJdxGJ60A/Cm7NWAzxz+0u261/z8TdKURsrUJuThgS8S0XjYuxh45Q34uEEDJN93L3Y88aR25pNJW8Anwxc53Ur5BqQJuhZwrRtfyvJ0l71yxk9pn4B/BujzOTZocDJ+Mnz5n+Bugd5sLavnls5/+/oMHgIGwmE41XcIxnXpjkuaREM1jzOu/seg2j4P1f0NqDf+BfXHr3Hxu7Nw40cL8NDnS/HI5/Fo9mUCWnCMSESrEUloM1yze+bzCfyRo1Ilx//oZwmHr/5003UVf0NrxV4CQE2CJy90BPdvA8+zTRYlUV6gQnkxthcpuyUDOlcFJ5QXz6qC/pc1HCzZeazpbVVk/lBL/FU1Gp7t91HV/XWT5ccsSFwkwEkWbgGf23y9GI6wc2HogN80v7EMnuBO0Jctb5shsr9l9pTPnQxf2DkBmOBuuuAJ6BszH/ex65+w8dNz+iK3i5mP+xkoaCVAHitBBAHfqgAmwLAqgNmKpM9AhgHLat1PnwzfyvrleXzTZlhMe7vhSdgJjwC+YfjsPjedq8fl4t7PE9HojY8w7MrGGH7xRch4+GGU/OBZlPUfbJrkMH//s3KXPJm3Zffsoncay3ayfFOHL+a9M8x8A18xNfqOWv0A8DO/b7v0GWOffT27dQYGTqVAAg5zTAYWfO1+Q3C890B8EPc06jUzoM8afl9XqM59oHr/Gup/PoR6axKu+WAe7vpkMZp8kSCDYN9qRDJaDE8SiZ+3xczHUj4p50sTmf/WzzIHV/WXVw3PqwkAYJBBwAr2BY6BAy/Kobpg2fOuzMdS20DfNWuWq0P8PCv7HQy1xF+VQKQy38dzeWx1VPAEn+V3/PStR31pu0sFKI20b1m6BAIFBHrN0GVFvYIyAX7uk2Fa7QrY87YZDAr082xOXefaZQU+y/AdgC+NeXJPwh8AfyPrW8AOSPMOts7ny7CPtVvN9MvB3zj2A8c6KV4E9hGIXqcl/Tgj6zPoEbNg1lFx6rP7oDdxj7j0PUu2a1mfkj5XkZPlYvPw8PBkXPPLURjc8A6MuOQiLGvyKPb9oBvKBgzRgE+wJ7u3dfcBwLegbDruWZYuAMxWuw7Al1z+EKCfMfJ9Y26fz3Uc0wYUAvb2Nbl1PEZek6/nZPjGQMiqAbYA7jcYh3sNwE/aPqXL+No8DuV5Eqptd6iuQ6FeoaN/FMLemYmbPl4obL/plwloagx+zOmT4TMICKeDf3QaIkenI/KrdESMTsXdnybHK1UrF+IhS65OtmVBs7IX2nO5UJ35GAYVfL1gvb9zkfLPPAf+X9tAP1QBUbDmubqPUxW1JJSqUk1L/NWV+qmqslfRb0zvi5m75H2W6VF2F8AmazcMnSAvwM6tGVGyBaIK9bDAH+UAfNlnmb3dimPeALYwdcPq2eTH1uZzGyjdI4Bbxs7nUdK3+wy4M0DIsaV+5axf0hEEeDJ+cwzdcpeBxyntK+AqgSaPH7cRaMvyPJoQWVXAlfwyDsObuh+eJAL+LgjgL9wKDyX9uesROWO1dJ5rPioVDX87HgMaP4ovL2oggH/g2ee09M4WuJK7Z+tb0yCHUruTaVtJ3QKzldct+BL4bR5f3Pt08DuHZf9nlPFZc59l/pb18/gC9iaVMND08bcBhmX2ZPcMLKhU9BsE9OXQC/vsf7k/nvQ/oZv2eJ6CinoWqlMvqB7/A/Wz96He1mz//s+X4tEv4tFihDb1tR6ZpPP4lPTZlY9d+r7OQOTYTFlauOXIlBMNxxQH/0t+9q//ud4TyovXmRdvGt6qew74euf7Hisj5Vc077UJ9F2W/3+DwKqw/QtZ4q+bLL93b3Vp1NKibcKuCc4Opk8ZX4N3GaIK9fDnE/xLIcBfWIZoLshjAgMGATpAMFv+b/Ls8jzLyAnUwvBZ738Cviy9PC57+Av4m7y+rc0X0LbKgCNw8PMYDBCs299u5fjG2CdlfCZwoIeA9zE9YRvwMI+/EWhPtz4XEloOOZ438zA8BHwpzdsNT3x5aZ5ur7sWninL0XLMMlz/rznoeV9bfNqgAdIefAB7n34GoOxuHfp05xPwA+yeUr5DzregH2D3BoQD+XQLvmTbZhCA2Ze/7+AAGFsmrgMCowaIw98h/TuVBAkGjCJgA4wA4NM0yGPb4xvQN2yfC/+sfq437vc8AeV5Gsr/DFS7l3T9Ptn+70biknfn4NZPFuMhgv6XiWCNPkv1WrNUb5QG/IgxGVLXz0Y+MsZk4paRWT+vCBFqcF91AgAbj1QHuz/bdJLNnRmEfNv/wVIlahPoU634tvcd7Ps5j5RyOQ9UlpyBH78T/J/fRfo6eH41oURUVlLneQdTRTpzzit7Pmf73ld2Pz+L6ph/53egsudY8ePjJo/s6s88KEAuLJ9gSLBeDgPseisgn0+wL0UUt3acxv7LEMVUQAG3JhggO887pYdI92TyJ2SlPIK8nyPLrKjHbQD4jZHPgr1ppFMeCGjA18EDb7OZjwkmRA0wioAT9OkPIPOnIrFKt9YVwCfLZ5tddh+05XlpXESHxr098Mbv1JI+140/w6l//QcLEdtuID6sVw/J996LPV2f1pI+Gf7rP9PAbxvtsG7esvkA0FvjnN0ShG0ufVh5TT6ZvQH60t4Dcar3AJzs1V+W1j3esx+OvdxXxvGX+8n+0l79gd4DdWBwmuPfkS4QE6AxA4pfwHHbyvmB4GJQQN7XgcdgnOwzCIk/eAmX+J6Giu4OFdcD6vH+UD1/BfXzj6D+MRWNP16IR79I0Ln8Ebpsj+xes/x0RHLhHrbqHZ+DiLFZsijPQyMzMxVqlcR/vgz4zAvV2f6vinxa8Q/7/PZWBvg5N8G6MNUW0Of7OdtnFIr9VHbYnKoqwR7nrDqbBvHzruxfKH8/VTmfyp5/RY+vmyyf7yRmTvJ8uvOFrRPoHRI9gVskfAH7Mg30eacQlW+HBf9T4qRnQMB8vU4D2Nul8Oeegj+HQH8Sfr4WgT3rGPxcJjfrCPxci36Z2fI+Dj42kMM3DXRsBz3D8DXQn5BjBxQCy/4lWHCkBljCJ6ZEU4+/pjyPH1cMRHNdAZoNqTpkHIJHeuqbPP5pxr1iRIpxL0+a7zTr+Rf846IrsPi2W7D98ce1aY/L2VpJX8rkaNhzAL5dDjfAugn45eVxgW57lNaFbQ8SACfIH325Hw681BslL/TEzud6YPuzz2Pr092x5alnsLXrM9jWtRt2PPM89nR/CQdf7IXjL/dBac/+APv6k7UTzJkq4LEDrN4oCbYksK8JMETOt4qCURVEadC5/bK+g3G090D8v87doGK6Q7XrAdW5L9RzP4Ya9jbUX8biyg/mibwvrv1RKQhn7l5GBiLYk39cFiLGZyOCoM82vhPz0GpM5smGo9fdUdEvrQb2VRcA1BbAt1P8bcB/vlK+fR3n9tte83wAl+B4rn+hDD6c74EMOFhMledcHcyT50+1oTJ/oZxPzmFVgqXKnP+Zj+U1oTrmOljBdPn5d/zPsLv8SVtPUiYPSPNWome+Xhh7KaIE6Lk9iajcU3obAH9zP/+XUf4Ygrx+DsH+hGb1LP8j4C87At+yo/BnHBbA92UeltvC+m1fgAC4awbP4EHkeUr0wux1gMBAQnsCtIogcj+fa1ILwu6ZBmAQwfQFWX6xlvU7sERvra44YHc+T+YReNhu2Hbck1XztsKzcBMi562HZybz+IVoOioN1/96DN684kbMuPYarI+LQ2nvfsBrPzK98/XStbqzHnPnBHUjpZPl2zy77LPyu6Men6DM/HmfgcLmD/Xog13P9cCWH3THmo6PocAXjbSHmmDJHXdg1k03Y3qjRph9QyMsuuUmJN99F3KaN8eq6FhsfOwJ7HrmOVmm98TLfVDGXgE2AGAQQBCXQMB0+hM5f7B+jCgFDBYs4FPqN4830j9l/pKX+6FLh+c06HfpD/WD16D6/07q9i9/bw4e/CJenPtt2Id/TAYi2JN/bKYG/Am5iJiYJ4AfMXm5Xq53XDZuG57zavk3tUZvVYdjP/ju3OBMGVMNTpDibV5kCc6huNDWFtCvDmmfoBHsi3p1gRE/p8r8hVrif6oyJxOEx9bda0LspClD/csOiTnOGu+E2Vtpn6BPlk+wt4Bu/qdkr/fZLcGe40RgK0BPZi/7CPpk9kf1lsw+8zB86QfhzzgEX8ZB+Ljlfsr8RhkIgHwemT8Hgd8uv2tW4rPqABfokYDASv/GxCe5/BO6Kx+b8KwBYtcD7TcCluWzP4E3+7juPGjd+maZXM8CvUxu5Ox1iJy6Am3GZqPhfxagT5PH8fXll6EwvDWOs48+DXpstjPsJ7oWnlI+2bwFeG7tCAQBdMrbrnuGcRN4+wzEyZ79hdXvePZFrO38JLJaRWLM7XfgtSuvRNxF9XB3fYVr6itcXCNsL/gAACAASURBVE+hQZjCdUqhjVLopxTeDlMYc+nFWHxjI+Q0a4Z1cR2w/elncfCFnjjRg+DvYP9WTSC487Z4BUwO3wYG3B8YxslvUgClfQYhv3svNOzwElTn/lBdh0G9/Cuon32AsH9MxT2fLUGrUakI/zrDgP0yhAvDz0H4BAP4UwsRMXUFIrgE8cR8PPxV7tQg/DiDcYhQR/Q8figANBjvncdwSsfBlPIrOr/aAvqhzEEzcAoF4Nv5rA7g5/lX9i+UgVR1Bs2c3zMD4VD8H+yAUH9e0fMyF4rcTkmeDL/AOPK5zdd5+dOAPeeklvaZk7egn6/z9RrwLfAf1+CfcwJRJmcfZeV8Mno7CPQE/fQD8KXuhz9dAz8DA0k5WHDn6xlXfwDwye4DYE+mb0yBYuLTLF+c/nTwG1+AeBZMLp81+SzRizWtdtl/38PFdCzLlzz+dt1xb8FG3YCHsv7EfNzzeSLadP8N3qt3EdIfvB8Hnu0ODHm1vLseJX0L+HYhHObpxSXPlfCczN6xch5Zd59BONVrAA6+1Bvbn30Rq9o/hgUPPIw3rr0Kba4Kw/2NFZp/TyHiHoWoBxR89ytE3qvQ7HsKdzVSuO5yhSvrKdyvFL6vFH6tFD6vF4YF112DnKZNsL5TF+x+9jkcfrEXTvXsizJK/5bRcys5/AEa+J3gL4GBMfYJ+NsSPm0sPNl3EN564iWoxwzov/hL3aznbxNw86eLBfTbcCGecdkIH5+N8Im5CJ+ULyAfMaUQEdNWImLqSr2dshxNv1p2oNE41PTKe9Vh4AvNj7uyl+SzP57nR+CvrKR79iOe/Z7aAvqhlMpDCfh2Zmvj9zaU58Qgrbr+6i7L7/J5VKOoxOKjBEuyee3A1zl8m5MXlk/2LsCuAZ1AKgAvUr8JAhgAkM0T5HOPI4rsnsflyD4OAn7UsiOIItPPPAJ/xkHN8tMOCOj7UvfBn7If/tR98DEAoPQvbN+AuZTzaRZP1UBL+QR9Gv+M+Y8BgHmcrfO38r4YCQtOSdMgrphHaT+Orv11OpevW+0ehyf9EDzJ+6SvvrTZZXnews2IZHnezDWInLwcTUdl4Lo3J+B/r7oVs264Fls6d0ZZ/0Hl/fNZiifs3prxDIsX0Lf7uDXldZJfZw59MEp7D5Cc/c5uPbCm4xOYfv/DGNr4cvjuUOjcROHlKIXXuij86lmF37+k8Nc+Cn/vp/C3vgp/6KHwy+4KQx5TeDpSBwZ3XqoQrhR6KYU/c8Gf+vWRdMetKPL7se2pp3HghZdxvEdvnHq5nzB/mv/Keg0AuNQvh0j9hvFbY58AvmkHzNvcb+7b+3J/xDzWE+rJYVAv/BzqlbdkFb4bPlqIll+lofW4LIRPyEH4pDyET8xD+OQChE/OR/j0lQgn6E8vQsSMIoRPW4GIcTloPDL3mer6JZ/ldUL9A69OhnKWt1irdtcW0LeTQvAPpgmtOgDfnntFqZlgMlLOTWX+Qi3xV0dQWrdZfodxI3qTYRNEA+Y7YftlxpRXLu0zl05Q1zl6MnuCvcnXC+CbQMACv8nfE+Sjso8a0D+KqGWH4ecQdn8QfoJ+2n74UkpA4Pcll8DHfZmHtMRvAF3UCB7TsnkBeOP4D4C+qQgwioCYBlk1IO16T0nVAd35VtpvV2xY/nJAcvnLjsCTZkr0LMunW98spBM5vUj66l/3/kI8E/4cRlzcAPmtW+J4j15a1peSvB9phu80yDld8We65cWop9k9pfx9L/bCxie7YWmz1vjxzVfg8UcU+sYq/Ka7wjsDFUb+TGHK7xXm/10h/j2FlI8U0j9TSPtMIfUzhYT3FBb8U2Hi7xQ++qHCL55T6NJUoeWlCl2Vwi/I+sMUFlx7NQpat8amx5/E3udewiEa/nr0xamX+5ab/pj3l9y/I59vGb4AvekNwPdgjYH9hiDtuT64+ImBGvQH/hnqf7/ElR/MRbNRKWg9LhttJuajzZRChE9Zrsf0IoTPXKXHjFUC/OFk/BPz8cDorE8qc1UJwWN5kQ7mhfLMY9V2lh+CKf3GQ9Y20Lcny88pGAFgdS4fTZA98/sWzP+rsqZ9MObwbO+hKudjP99z3Yby/O37Ch0RiJmdOFsA2MH0pcyO9fiG+YtLX2T8k5q1m255ZPrC+E2uX6R+m88Xtq/l+HJp/wj8BP8MmvUO6UE5nwCfsleDPbdJe3QQwKCAYM78P4HeyP26nE/L+myeY1m+BAVMI5igQABf3P8G9GlKZJDC7ntsxsMOfGt1Ix5px5t1DB5x7O8vX0xn0VZE2r76NO9NKsAjw1Nw36sf4u8NLkf8HbdJeZ444F+lae9HmuE7V8QjGAroO7fGOU8pn0a93gOl1G5n9x4o8LfHO3fehBeahOH1xxT+0U9hzC8U5r6tkP6JwvKvFdZPUdg+W2HPAoV9ixQOLlU4sFRh32KFkoUKO+YqbJqhsHK8QvrnCjP+pvC3wQpPParQqYHCj5TCe0ph9lWXI6fpo9jY6THs7va8AP+JHr1RSqMfWb4FfAH6wQA7C1pVwgK9/G8VC+1HONlvCHo/OwDq+Z9B9f8D1P98gvr/noEmo1PRakIOWk8u0KA/dTnCZ6w0gL8a4TNWI3zmakTMWIVwMv7JhXjkq5yiGlxuN9Qd+EL34z7XS1jte1xtBX07UwT/qkr/NfF5B1OlsKBkt0z5VPavLkv8dZvld+umLo5ekLNPTHximDuh5X3K+KyvF3ZcKk59kcYJoALmhuUbQKWTX6sANpdPif8MaZ/yvnHpi7SfdkAz/ZR9Ws5PKoGfDJ8jyTB+gj6BnqV8BvxPy98zTSD7ubUOfh1oiHJhVAkJTGhGZBliYSmibD6fsv5q3Y+AuXwvc/npB+BJYl3+LtNbn7L+BkTOWqvNe19n4cr/zMeQe2Ix8crLsDY6CqV9+pc33KGkbwE/wIRtgxwHG7bsnnL+f9vZ0pW/qWt3LGnRBsMevAQ/ekzhvSEKU3+nkPqRwqrxGsgJ7sdTFUqXKZTl6oECBeQpIF8BuQrIVijLUijNUDieooMBBgErxv2X3f9b4fc9Fb5/rcIwpfCuUph++SXIafIwNjDP3/0FHHupF0p7Gnc/QZ85foI+8/w8b74vBjFy2wQyEgA4OgEOeAXFPfrh2hd+DNXn91A/+RD1/j4VD45MQcuJeWg9bQXaTF+JNsLw1yB85hmD4D99lcj9rcZkl142Zsvtlb2yBOnxvLjbC1woti7L/78fVG0HfecZV1b6r4nPO5Tf4arm0UNpkgylxF+3WX7cZ3/y+BO369w6QTqPxjyyd13Xzu55Oo9vm+rY+43ML7I57zshDn4t+9vAwOT2JZ9/VPL4IvFLSR4l/YPwpezTwwI9wT5xdznjF4mfpXwa+CUAYBBg2T1NgVIFYGr+heXTyU/g17377fuRIIbVCKs0syfTJ8tnXT5b9NKx7+Eqeilst8vOezvhWbQV7LoXOadYt9qdmId7vkzGw/3/if/Uuxgp992Dg92f10106Ni3gG9y2wKUAvwm3+28LSA6GKco57/QG8WPP40RD92N16PC8M4AhWm/U8j6QmHTdIVD8QonMxXKCO4rFbBaAWsUsNZseXuVAorM/csVwGGDgBwdABxL0SpA0XiFr/+g0L+FwlCl8M5/3f4zL78UuU2aYNNj38f+53rgZI8+QMDZ72jIE2D5Q0x9v1Uv7Ep/ZrW/AcNQ2m8I/vjcAKjev4P66QdQf5mA2z9fihYTctCKoD9jNdrMWoM2s9bKNnz2GoTPsuCvGb/k+cfn4o6R2S85r7TVeDuUP/KaaihSjdNXpZeqS6Bv3yDB/Nu+KzXB8nl+oZb4qxLIhNJrECqJn+8zFIG/85ih9Xu0/eqrn/mSd0utPOvlBbRFsjfL1ZLpO7ro0aCn/7dlc3qr8/pk+wZo6e635XnGxMfjM5cv+Xwr6SfvhZ/An7hHS/qJu+FP3FXO9o2LXxv6WMJHwLes39m9z3bwo7rgYPqmvE+MiKxEWKFBP4YMf41h+VxBkB36lh2Fhyw/ea8Y+CIXb0ek07w3ZQXCxy7D1f+egx/eGoFpDa/C+rh2KCP7tb3sadKzgG/r3Lm1YE8p3+bD+w6SUrz9L/TG6k5P4t1HbsZvfqDw1c8U0j5S2DRN4WiyQhkZPAG9WAEbzdigAA7uW2fAn4GABf4VCuAoVAioAFQAchTKMhROpChsn6uQ/JnCj+MUXgtT+FApzLn6chS2boltT3bFkRdeRlnPvuVGPnveAvpGseBt8SewIsH0FpCtNSoOxe6eA9G4x8+hXnsH6k/jcMsX8Wg2MQ8tZ6xCawv4swn6a9Fm9lqEz16HcNmu1VI/jX2T8vHg8MyP7dW1mrfOUjXnjzMYt6szt1vN03ZeL1cXQd++YQLD2aT/qoCjPe75bkPpS2EKrLJ/oZT4+V5D8fdtQV0wrgn87ofuL2Z64kx/EkH/sGbMUktv8vTG+CZd9Aj8IpWbbnq8bevlLdDLYzTo60Y8BF+HxE/nvuTxjXGPYJ9s8vgEfTL8hN3wxe/SAUDSHvjTTfkez48KARl/5pFyqZ+M3wyp/SfTN2xfn6+pOOB7YT6fuXx24DP99aO5qI6py/fYHvt2UZ3FWxG5YDOkJn9GESInEHiS0aT32/ggrD6WPfoQDj33oi67Y/981t0T3Anyzl749rYFTSmF07X3+17ohZUdnsA/W9yAt3sqzPmLQtFYhUMJBuwJ6FsUsE0BW83tzQrYZEB//Rmgb5k+AZ9Mn6DPQcbvYP1YplCapnAwXqFgnMJfnlf4eT2Fz5XCksbXYZXXi13PdMexl3prts9z5vlL8EJ538r4Fujt/4blS/tg3XegrP8r+PULg6BeeRvqzdG4+uNFaDoxBy1mFKHV7LVoHQD8deWgP4vgv1Zy+5LXn5SPB4anZ9dQS95g/JDPdoyaBIHQXVjO/8ihZIGhlH7PfOddHa7/mmL59pxCCVgMcqryF0qJvyqByDe9h7rP8n+rVL2YWenbmUOX0jnbMCeQB9cr2TEfLh3wJOevO+AJmybos2wuAPY6zy/BAAMByuvM/5PpE/ApxRO404xxj5I+TXtk9gR9An7CLj24j/el7dONekzDHlEj2MiH3gA7bN0/tzkcTravAxhK+9JsaJU28HEVPanLXw7QwOchyxdpf59eSS9hJyIXb0Pkgk2InLUGkdOKEPH1Mlz33gK8fk8Mplx1OTZ17IiyvgP1KnVssOPI0Yv5rY+pcTcgb/vl875Tvfpj/4u9sarjk3g3vBE+HKSQ8G+FrTMUTqQbyX5LPWDHJcDOK4AdF5cDP0GfjN8yfUr8ZPkEfA7L8isCfaoGhvEjSwGZCkcSFdZOVfjLMwq/YSOfemFIufN2FMe1x/7nXkTpy30M22c+36QpbCUCt7YSgaWHtrkQ2b4tTRwwFNtfHoBG/f4f1C8/xyXvzcWjY5ehuRP0ZxPwNeiT8Qvgi8xPY98qREwqxANfpBy+btSeq7/pVxmC+0L5Q6+KASoEb7FWHjKUAFWdoG8nl9+jmg7wQhlIVbWFcCjPKdiMOZTfSUsKgn3O9vunt53/2u0B37zVpVIbTyA2Pe/FGCdMnh3v7LK1uibez571NMyx8Y1I/aYtLgE+AP5G4rfBA4GfoC+5/MO6+U4qHfrGpU+wJ8tP3A1vws5y4CfoS72+adpDlSCTnfoOw5fF+v3yPP9pLN+4921gIpUHBP0VOn9PaZ+L6sRwJT2y/JwTGvTTDsKTsheRiXsQuWQ7Isn0mctnXf7EAjw6Kh0PDP0Q79e/BGkP3ocjz7+kgc2Zx7csX8rcTK9629iGWwP4B1/qg7VdnsaHnsb44jWF9A8VSuYplBKQN9YHdjYGdt8D7L4D2HULsONqYFuYZv2W5VPat4BPWZ+5fgv4VtanB4AMn2BvjX455WY/Af4MhWMG+N/6vsLbSmHqpRcju8kj2PrEkzjKDoOS2zegf1oVwlAD7obhO6X+ANsfhtL+Q/DzHsOgfvo+6v1rOh74Kh3Npq1Ay1lr0Gp2MVrPWYfWFvhnEfx1br/NzNVi5GO3vgc/T8SN76S0P/1bHPL/QilBhirvGPJJqYYXCOUFtiZAvxqm7FtfgsBswSXY26p+l0P5+wqmXyaUwb/9LEKby+fX47GP/v2ib16xMGrpgGed8gRUYfWO/H2g5t2AP5k8wVXYvgH8M+V+U7on4MvHEvT5GjTnGeOe1wK+YfhcxU7L/CavT9Dn41P365p9Pl9kfi7Kwxy/zvOzDDAA/JbpmxSEgD7LD5nPZx6fgG/L9LiSXvYxWGk/UvL5uxC5dAci52/WoM+ysUn5uP6DxejV8hlMvvpKFLeLNbl8s0AOc9tcZ94AO6gACMO3+/SWHfYOv9QHG5/qji9938PHQzTg75mvUEag3nYtUNIU2BsO7G0F7L4f2HUbsP0yDfiW4Z+Zx68I8J1gbxm+cfZbhz9d/mT7SNfAXzRJ4c2mCp8qhcWNr8cqnw8lzzyH0h6U+QcYid/k8y3D53aAyelbds9Uh3QdNCsFDhiKwh79cbEsvjMed4xMRtMpy9Fi1lq0mr1Og/6cYrQWwF+nzX0EfLr3Wcc/JhN3fbYU1/x9YXUvtUt51v4og72tKjv61qv7BfAAF/SD/yGG0sF/PqmLUEr8wWprHcrvo72uhJbl8/vUbuRXn/gWbhJ5PZA7p3TOTnm2FE4WutHGOLuwjYA4AZVALjK+CQ5M29tAIGBz/dlswcuFdY7Cn8p6fDr2Kevvhlekfcr6O+GL3yFL14rcn2Qc/AR9Aj4HAV9An4zf5vgdwG9lfr6WAX7dR6BUSvVsbT6ZPlm+fwWXzzUL69DAl7ofkUl7EElpfxGl/Y1SpseWsC3HLMPNvxmPv198LVLuvQeHuj+nZW0umGNL15jzdrJ6gr4dfQairPcAqcPf/uxLmOp9FB8PVsj4UGH/IoUySvGbLwJKIoD9ccC+WKCkDbDzDmB7Q2BLmJb0mcMnw6db30r6FvAtu7f5e8vuzwR8Mn2CPYeR+JGhUJamcDheIfVzhT83Uhhfvx7S77sHGzt1xpHnXwZYt89ghhI/g5yAtH8m4DukfYfMf7zPYLTv+3OoN0eh0edL0WRSPprPXINWc4uF5ZPtU+JvPXMNyPDbzFiFNlNXIHx8DpqNTEGjjxbhsrdmjQ7+tfAbjxhKdvRdZZzfOOHmzlBeZOv6vBPIyDz5PgjkHAQMDoKvHWS6zhFKQ+r5gD7P2wJfsLfBCKyri+Wfy+/i/B4TO2pWqm/RJvjid8LLTnjpbJZzELLKHdk+69/Z5EbkfLuwzXHodev14jm+XCP1W8YfKJMz+X0B/hPaJEhZnmV6kssv0Tl8s0a9d+lO+DjI+BN36jp9mvwYIDAVYNi+eA/EDHgYPjb4oalPVukzjN8s4sNzFj8BmwYVlGqWz7a76/RKelKmx+Vz2Wc/40jAtU9pn213IxduQeTcjYhkM57Jhbjni0R0eeKnsnDNar8PZb37m/I8Y94jEDpB34J9gO1r497eF3ohIzYOH/W8CEn/Vighw6ckv+MaYA9Z/d3Avo5AiR/Y9Qiw7RqAuX0yfAK+LdFzuvRt7t7W6luwt7l7y+6dYG8Z/jLD9A3bP5msS/rG/FjhozCFeddehRUREdjzg26a7dt6/TNd+2T6AZZvbsuCQiYgGDAUXH53xIv9oH71Ga74cAEemZSL5jNWoeXsdWhl5P3WdPAT9AXwlyN8Qi6aj0rFrZ8sQYN3ZuGyt6ZmKYWw8/vmV+rZobwg1XSOt1ITUc0P/q6DPoGdRjQCOqVzgipBO5Ss+HwA93yk9Nou8Yfyu2jnPPRVPN0eVhdHTU/b751bDC8ZNhm3ldKZN5dV7tjwhiVyZM4G9OmUJ6PPMmDPgMAAvgQDlt1zawMB3mYAwWOynz6BPGkPvByJuzS7X7pT5/MZgIh7n0169sJLRSDZ9OEn25dV+A7IVjr6ORi/mPvsyn0C+sdlVUCpz6e0v9pI+2uAqJWA9NnPPoZIY+CLTCpBZMJunc9ftMW49lcjYmwOrntnPn55YxMsurkxSro+rZkuzXtksqajXkDOJ9CLU980szEs/0iPvlj7+DP48MlrsOgthV2zFcrIyinp720N7I8BSloAO+8D9kQA228rB3ybvyfDtw59C/aW2Vs5nyB/JtCT0dtBoLdgn6GlfaQpcJxKVDiyRKF4qsI/mimMb1Afaffdgw0dO0oJn2b7fH/O2nzj4JccPgHfSPo2py9SP1MAr2BXj364+fW/ot6/ZuDhsZloOmMVWswxEj/L91i3P20l2kwuRJtxOWgxKhW3fLoEt41KQtOxy/Dg8LR9976DS6oRgEIJ+tX4NurcS4XyQlsbmT4B/nUD7qEsrbMgE+zt+YA+v5yhfM/nI/FfOCy/49vPPOibu6rMu2QbvIs2a4ZNSZ3972nqM0vb6vp41sUbxs+tsH+tAkgagEEAXfyBNe4dXgAx/JnnMnWQug9eAX3ThCdhF7xk9gHQNwEI2/BSERBVwKQDbAc/Bg6yUI/N72vGL30ACPoW+Fk1QKbPdQSKTD6fzXgo7dO1n3sKniy69g8h0hr44ndo0J+/UUA/gqu8jc7AvW98jk8bXIq8lk1x4uXeBtiMtE+Al5p825ueDnez/KwY+8jy+2HXcy9jRsdHMflXCuvH64562HwpUNJSS/r7OwAlkcD2G4Bt3wO2XFzu0LfNd5yleBbsLchzSzZvh5XvCfZnAj3B3gA9UhTKkhRKkxROxCscWaywZ47CjD8pfNRAYWHj67EyMgIlz3TXTn6mMETit+Y9h7xvgd7K+pb9M+/ffwiO9RqI5/v9BOpvE3HnqBQ0nb5C5/VnrUHr6avQWgC/QHrzNxuZikfGpElpHxWA1lNW4JERaWWXfpBdnQzZBf2aiRcudNDnd5ggT7Csrey9MoHB+dbFh/J3dj4Sfyi/h3Z+Q8/y+RuO+/Q/XX3z1mmWT6a/ZJsG/pS98DrL5AjUdMnn2EVtyPj1Gvca/PXiNrZ0T1a3s6vfSTDAsr3juqNe5mF40w7Am1yiB1k+8/p8/QQyfJvTZ6Mek9Mn6JPhs6yQoC9BCVfk08Av4C8yP2v4Hfl9m9fnegGFZeWgz+VziwBvQRk82ccRmXkEkakHBPQ98bsQGb9d1+bPWy8d+CImFuC2zxLwvL8fZl53DbZ26qQBnbl8GtWY15aGO0betzK/Bf1+7KmvW+zmduqCrwZdgrwvFY4lMzcfBuy6D9jXDjjQRW93NdGSPh38dOmT4dumOxbwK2L0BHgr31uQ55ayvR0sBeQg2KcqlCVroD+VoMH++BKFI+zhv0Bhz1yFNRMU/tVaYfKlFyHzoQex+bHHcZxOfvbjZ6DDEkWCux0C8NbNz/1k/EYNMY7/U30GYfiL/aH+OAY3fLYUTSYXoPm0IrScVoRWU1ag9aR8tBm7DE1HpaLp9OVoPX8jWtPdTwVgciGaj0zDLR9mdKhGHArVxeh8L5LVOAU18lKhvNjWFNPn6/4mxKzWAkl1b8/3+xxKRl1VFSKUaQf7+ZzvvJ37j7PdmLG/9s7fAO/S7Tqnv5SAS5a928j8++FN2w9vui2Rs53w9KI3bFlL17uAvDPnb4A+UNLHAID3M3DIOGTWqN+rpf0EluhpeV9c+zwXyembJj0EfLblNaV7ftPFT4A/lX37de9+HleUCXH1s8kQwV/34pcywuVl8LP1Lp37BH0a+FibbxfXSduvy/TidyJiIRfXIcsvlvXcw8fl4IZ/zsZb196H1HvvwqHn2HJ3qKPdLl37pmmNBUIbBJjyPTr2d3TvgQnfvxOL31bYM9uU1tGgR2a/v7Mee8KB7TcDm+vpLnsW8CnnO6V8y+idTN5K9xbwnUBvWX2qBnvL7Cnln0xQOLZU4egizfAPzVc4MF9h3xyFbdMVJv1C4bN6YYi//RasiYrGge4vAOzSx/cmoG/r9C34E/QN0JPdO5m+VDgMRvHzPXHZL97FFe/Pw6PjstB88nK0nFSAVhPy0Hx0Bpp8lYaW84rRasEmtJq7XjfvmV6ENhMLQPbf+N34Ief+TT/vR4YK9Mnu3L+zz8CFAvqUli2jtxf6C3EbDPAiOIdibvhbq4rEH6rzcb7H6mH5/J1Fj5s+zrN4CzxLtmrgXbpd2L6AcPIeyaULKyczZ47fMn6zuI1d1Y7gL6Ceo+v2dV5fr3cvZX/ZGvRlIRsB/f3wUuKngY9Dgo1dEniIe9/m+E2+Xzr2Ueon4BP8aehjekAa/NDRf0A3FpLmPabFrzD+o7opEDvxcZEdSvqrTS7fGvjI8tMPIDKZuXxdphexaAsi2GuftfmU9kelo+ngDzDq4ktQ5ItEae9+RtonyzelawQ/O+w+226390Ac7tEXuV26YPxP6mPNWCPrb2oA7HoY2Eunfmdgjx/YfgewuX65Yc+68y3gWxc+GT3lesvkCeoEeefWAr1h9QR6UF0guyfYxyuQ2QvYL1Ag2B9aoHBgnsKBuQr75ynsmqlQMFrhPzcqzG54FQpatsTOp55GKbv0icTvbMFrAD4A8o4gwLB8SQn0HYwDPfsjcuAvoP4+BXcPT0KzcdloMTYLTUam4uHx2Wi5cBNazSfgb5ASPrr5RfafkI/mo9Jw7fvxfzs7VgT9nlCBPn/47t/ZZyCUF9xgd2qr6F0QZMjqLwTp3glSZ7sdDNAP5W/tqYo+pG/Yd2GxfL7R6AlLl3kXb4V38TaHxL9dnOvepF3w/n/2zgM8jupc/yMXWiAOoZNQQui2VbZJsqkBQje2wV3ulPTc/JObcFNuSCG5CRAICZjm3m3Zalbvsrqb5KbeJcuW5N7r+3/e75wjDcI2ktHKMpGeZ54zOzs7uzs7mt95v8ogOsKZ5vQ1+zGEPv71h2Ha2KqRCl5H+NtM+kMIep3Xz4C/IVT569m9br+Y91nbXkz8VPmtap8m/maZBDCboLUyH4HPV/4KlQAAIABJREFU7ns5u0GlL8GGuivffTqdT8z+knmgW/VS8VPtM5iPBYOK2qB/X3Gbyg+iL59pepktCEpnmt42qbUfGFuJwKhSBIZuxE2zMhFy31TEXn0ldjz9tPJl07Rv1KyoV9NqVk8CzDbdPa9lzEREjLhDovX3J+v6+Aze2xmkI/UfApruBRouUT585uAzOt8U2rEX2CHwjZrnSLgb2NvN94Q9QW+D/anVFk5qU/6RVAuHki0cTLKwn+o+4bPjzhgLteEWZj5nYcXFFyPvzttR890ncFjS97SJn9+V5n2CXSryadgb0L9sAv50Z75pr+DI5Jfw43EvwfrjAlz2QRLumpeNu+dnY1D4ZjhSGuCgwk+oVvn72tfvjtgC94qN8FuQj6vfS1t2ln/Wrn6K0dNnutF90e3noj66+vv11ON5E/rejAkxsP+i18aF9vqugD7Pnbe+d2dTCr15/Znv2H0q/2Wn1f++qLx9hH4wA+hE5W9XY8o2MH2OUA6m750m/lxl5he1ztazGv5i3hfoH8OQgqNS2U4F9FHpK/CLJWDdYd2ydr827+/CkKxdKnKf7gS+H0FP9wKVP038HKUWP4v06Mp9VPsmsE/S+VRKn8Cfyl+b+yWqn819GMjHEsKM1Gf1PdbZ3woEM01v7UEE5e1TZn2qfJbcTa5HIH35MZVgbr57eQGueDcBb97gi7y7bsehseM+bdoX2NlATwCK4qd///tSfe/oxOkoeep5hP7XxahaZuEkQc30u+3fAnYxWv87QLM/0DDg08CnSZ9591T59OEbk74BvlH2BH572NOMz+A8KnsG6GnYU90fS7NA4AvsCfp4C/uNuo/XKp9KP97C7hgLO6IsxL9pYckl/ZB+800ou/8+7B09HmDbXboz7AV67OZ8Qt/4+u3nZdr3cHzKy4gZPhbWT96C9WYYrpmzGoPjKhCQvA0OKvyEGqnS52Tw3qoyUfmu8K1wh26EY0Eern4vhXaO7krb8yb0vQmfngrzjn4ub950vXXe/5OUvQGXfezob3u2/bz1u3fGnfblU/nD/vTEXUPjy04S9tI+lmMaVf52qImACqyTbnMEf84eDNFqf4hudiPg33BE/PoEPoP6WM7WwH9IoV6n73/tYQxhEB+VPq0HVPpivmcQH336XDTwJZhvh0BfivRwAsAaApkM6GNHPt2gh8qfwX1cuE3y+dvAL5386IrYfBJDjdIn/DfTl88WugfA6nti1mfJ3aR6BMbXIDC+CoHRpQiMKILfgjx869dLsOjSr6F4SDBOsDgN0/RMqp6oWZWK9hlTP4E45WXsHT8VScP8kP6WhX1JOt2uoR/Q5AvsfAhoGQo03gLU9WkL2jPAp8I3ufd2hW/UPWHPdROFb1P3pzItcDmZYYGBesfTLRxLV8Cnwqe6Nwp/b5yCPc36xrzPkX795lUWtiy08MnNPsi45SYU+AWgefjzKmffRPET9szTN+fDPhFoBT5jH1QzohNTX0bFqIm4+I8zcfPcTAyMKoFvYg0CEmvhiK+BM64KzphKOAn86FI4I4rhCtsCV2ghXAvX4Pr3UrffOhuXnO3O0YXPefMG0FmTYxd+rR5/KG/d/AmproY+3QXeLHxjB2tPXu+Ki6onFMPqjt+y+1Q+f5UnPvzrqCFJNQiWILodCE5j9D5HmvsN+Kn2dyKYfvc8mvn3Ycga+veN0qepX5n7qfhVYJ/x7x9rfaz2OSTugSF5hP5eKQRkoC+FgRi5n8aYAtvCfP30HbomP9W+ar8rgDcmf466Ja+yAOzGfXl72qr2cTKy+RSG0qRPlV9Elc8KfAeVWZ85+ek7EEiFz+C9uEoExlQgkGV3Qzfijjk5GPnsq4i9+mtofPIpFbXPOvsG+gZuAjam6Wmlr/35J6e8hIbnJyDslQEonm/hBAFN0/22AUCzG9j5ALBjIFB/sfLjmxx8uw+ffnwDfKPuTQQ+RxOcx5HQ1+pegL/awokM7b9Pt3BUB+xR5R+guifstcoXP76GP1U+ffqEPk38NSssLHzKQsr1V2Ojw4Waxx7DMUbxs6GQSd0TZW/UvZkItRs19JnN0DJ+Cu78xf/hqk/SMHDlJvjGlCMgtgqO2Ao4WJo3ugxOncLniijS0N8I1+K1uH5G8vGvv7fppq64w3TgGASEt260XySVqAMf/YLe5UKBPoP0/lP89p/3f9AVF5w3Tfwd6Q/gTcueOX9d4Qrp3Ll+eOnS3wWn1Av0maYWvLpJKf3URlH7wUn6OW6nGZ5pfNq/L4qdql2Ar6HPdYnmZ0S/WY6I/1/240SBwOfEgdCn9YBKXxfiEZM+gW+CCWWd2QSM5m8Xyc9ofonq1614WchndTPuy2zBfWzFS7M/3QDM4xelf0oBn+DfAlH5Qfn7ReUHMic/uUGAHxhXBVnoyw/bCs/SDbj6g1T87+3fQfa3b8G+F2xld1v9+TZ1S/AbVavhdnTSi9j4zNOI+5OFpmhtrmdnvG03AM0eoMkJNFytzP3Gj8+SujTr29PyGKVPg7Yx5RPuBvL02Wtzfqv/Pkvl3VPht0I/1cLRVBW41+rHJ9zjFNw5yqLVvoCfJn5G8UdYWPUrC9FfvRwb/QNQ8Z3HcJAthdmEhxYNfm9R+4S8WYyrQyt8Tg50zQKxgIRMxbCXXsVF78Vj4JK18I3YoqrzxZTBEVUKJ1P4IovgitgKmvaN0ncvXovbPkzDlf9aM7RzV/0X2tv8s3b12Fk/4xf6EhfYiy8E6L/txQlhV19r3XG8rrrEvPXbd8TETyB7+1x1r8rnr/Jg6KpFQTTpr25GcGaLMvHTxJ2+A8Hp2yDQ53rGDoE+ffsCf4nk369M9QzMo6/ervbXG8WvgM8gP9mH0JcgPqp8ZZ5X+fk6N58Fggj6lAYMYUwBHzPAkEqfNflpbWDePl+bpeAuefw0/Wc04z6JB2BMQLOAn/tJcB+hv+UUhhD4us5+EFV+zh4EZqj6+lT4jNYX4MeUK5W/YhMCFq/Dtf8XibmXfwNbXA4cZ8MZwp5K30BfQGeDfSv0WYP/ZewbPxUpz/tj3YcWDq/W+fa1fYDtdyjgb78TqL/os2Z948M3KXkEPlW+XdmbIL0sDX0dmU8fvhTaoWlfm/WPp7X58g8lWTioA/eo5Kn2Oe6JbVun+hfo6+do4s//xMKyr16E9YMHofrRx7Fz5Gicol/fpO6ZSQ+hT4sHJz4EvYlx4H6cINAlMOVlHAiZjv8O+b4U6blpbiZ8WW43bDMCwrfCEVEER/hWOCOK4AzbCidN+2Gb4VqxEe5l63HnrNX46r8yQrrqDtOB43jrRtD9M/4OfNkesou3bvy8oXeFeZ8TNm/D4UI7flddOufLxP/lVPn8VR4Iz8oSXz5Vvqk1z+j1tEaJYJdUPqbzmUkB0+jYfU7M/HsV9Ndptc+R5n0BvvbxGysAg/7WsIEPi/Jo0z7TAWk9kEh9mvA14FMbMTS5HkMJfcLfQD9tuzbxt0jpXpbvFWXPSYBAn/5/VvRjvQFOEpplv1bobz4pwA82xXgYvMemOunbEUiVn1QHT3w1Amnajy6Hhw1eVmzCXXNz4PjBDIRd8RVUf+c7OEVTtvjzCX1GqLdTtAZ6GninpryMHWMmIeaVa1C5xMJJQpt189lUZ/vdwPbBSuVT+ZviOyZojyZ9A3y+jovx27dX9e1gL9BfbYGR+kbpM3iP6XlHmIufok378W0K30DfqH0x9etgvj3xqq5A2TILC+/2Qf7dd6HyO4+gZaTuvCfQZ/aChr2Z+EiRIl2wiLCXHgQvC/BZ3OfQxGl4d8wkWH9ejK99lILBS9bCP3QjAlZugoNL2GaBvZPwD9sCZ/gWVbgntACD5uXiyhnZr3bVHaYDxwnz4g2+KwDUga9wwe3Sk6HfC/zTT3i66iI7XyZ+b03u7ZO37lf5sCyf+6Kym4IympTKN0qfneUYwS7gb0AwG87QvC/77ZQ+88E5jOanb58pfAcRTKhrU3+wROjrKH0Trb/moPLlMz9fau7vxpBMRu2zKI+K2Ddpg0MJekI/qU7KAovyp7lfCgaxAY8255uRZn0qfFoDODEwS/oO3JfZrCr3cfJB6Ete/gnYVX5gWiMCGbxHlc/gvdjyNugvL8Q3P8nAxEd/gOTrr0Hzs8OUaiX0qfIJfePDtpuzuS7+/O/j+OSXUPbMaMT/oT9aaNqnemexnfqvANvvAhpvB+ouVj5+Qp/peSZwj8DnYoDP6nm5qpCOCcijej+RroL1CHgTuGdGidinP58BfIQ+TfvJGvo2pU+FvztWm/n1KL5+W1Afn6+PsLD0WQvZt92C8gcfxM4XxuLIuImqOp/49Y3Fw6h7XbTIqPupBP5LspycNB37J0xF2IixsH4/Fxe9l4BBi/Lgt7wQAbSyhG2GI5yg36oWKn6a+Al+KeCTj+tnrH6vq+4wHTgOfYH2f9yuXO/165/+B+ip0GeEflf+/l+mY53+lzy3rd76/c9kXfvyqvzvTvz2tUPithwPzmyWlDyJXif4JXqfwXyNAvxgTgDSGwX6VMbBWS3K1J+3F8Fc1hxQPegJfcLfgJ6mfFkOqgkBJwj5+9RkgX58o/LpOqCa55JSjyFJ9aL0WSWQ7X7NZEAsAoS7gT2VPJsD6UA/mRzQSpC6TYGfit80D1p/CMGsvLeJJXePgb78wKxdCJTgvW2i8gNF5VfBE1MBz6oSsNa+Z8k6XDkjBa/f8ZCk6u0fPVYp+0+Z9u356DbVr/35h0OmI3/4w8j5l4XDaRZAXz275NV/FWi8C2i4Rk0CTPCeaYvL1DwCX/vwT2RZOJFj4SRT8Kj2TRBfnoVTOapBzvFMFZnPlDyZCGilb8z7x1ItHNGpejTvM2rf+Oyp8o3Cb/Xp6zQ+E+HP7TtWWYj5lYXUG69FyZD7xLy/f0yILsmrQc8mPKLwjSm/TdnTpM8YALoEjk+chv0TpiDnmZGwfvMR+v07DnfPz4Hf8gJR+gFhW8S8TzM/I/edkcXK1E8f/8rNEsx30wfZked2LzmnV3nzhsCbW+/fZ8+At276hOy5Wle8eR18GeD/2V/x3Ld481yfrjjTl1Pl8/w/9sEvXUHJNafoy2cbWdU/njXnm8SnzwI1wSnbISb+lAZwcsCJgZj6aeLPZW1+A/0DSsmvVaqfUfHBtADIeADBa/YjOG+fLCpVb5ccRwL4GFMgPvx6DEmsVUtCDYbEE/q1ovpbCwexgA9dDJwwGP99q8LnxIFZB3QJKPDTinBf/h6JNwjaeBJBG1VjHeblB65uQWAaTfv1yrSfWK2AH1sBT2QxPCu3wLloDb7+9ygsuPJWbHG7cDRkslL3ErVvryVvg72Ytdva6+4LmYqUkHuwZa6FE4Q10/Boymfg3rZvAqytz+A9u8o3Zn1CP8/CSXvgHs349OPTh68j9FsfcxuXHAucABgrACcBJjefSp/m/cOM3Cf46bePU7n4Ru3viVHbqPQF+LpgD/dlFH/uRxairvkqioKC0TT8eewj9BnMJ/56uylfxTQo0L8ETH4JmPQiqPBPTJyGIxOmYu/4Kdj61Ehc/Iu30PdfMVKcxze0AP7hWxAQsRWOyGLl2zfQN+Cn2l+2Abd+kruhG1vsejOCnzd7pgX2/n36DHgzbYrm487+8RrojdI/u5Wjs+f0bPvzN/LW+WblP/ufNycYZjJ3/ib3j85+b2RQSh2CslpUG9nMXRr4zcq0rwP6pP481T/N/gzqo++fKXxcNMgV3PdpyCvYs2SvWAHyadJX0GfEvlTho8WA7gIeV5vzpf5/Qi2GJNRgKNv8ciH8k+pVQF96o/j0RfFnafibXH4J+FMxAHQPDE1twFBpHNSkMg42HBalH1RI0/4hBObuQeDqZgSmN8KTXA9PYo348z2xlfBEV8ATVQzP8kIMXJCHgf81B2GXfxWVDz2EkwQbTfp2pf8psz5N27YAtqkvo2XcFCT+8HpJdztFiLPCnkD/KqD+a2qdPn5OBujLp2mf+22wcIpqnkqfow7Yo9m+FfhmnaBnwJ5+zAA+PpZAPm3yb1X79hx9Dfy92pxP+BP8fCyFehKU319K8yZaOJisLAOlyywsuLkvCnwHY/szw7Fn9ASckjr8L6sgPfHdG+DTlP+ywF6AP3EajodMw7GQqRr6k1H+7CgM+PHr8Hk3GnfMz1bBfAL9Ig39YtWIZ1WpGqN0U57lG3H7zJztDz2Efvb/XC+ve1MJXGhR/AQgzdznqpg78lN583x35P3b7+PNXgAGDN4YCU6eSy6cSPW089r+PNsfe8va0x7A3jwn5jc9fxP7hxct+u+gtG0K+uwfT8Uv+eo6kC99hypHm1SnWszSxM+KdXQBUPFn7UJw7h5l4ifgqfqp7PMPIDif4z4Fe11yVyr60ULA1/H1nEAwWC+5AQL8+BoEx1djSJwGvhmT65WClyY8Tao6n9Tl14V86MMX94CKBZDjJbdBf2j+XgkwDKbKLzwGltwNzNotUfuBKQb6tfAk1MBDlR9VAk8EoV+AW2dnY9xzv0bCdVej4YmngOkvK+i3Ru238+kzeM8EsE3/Hk5OVvn5Kb++Ai0x2p9PMz6hX38lUKcj9rnNpOjRrM9qe2stnDLpeVrRG+DTdy+BehrsAngNd5kQMHKfE4BsNdKX3+rTT7FwJNmWssdAPl11j8AX6OuKfFT6BD5T+8xC68C2SAsLhvgg5/ZvSznenS+Mw6mJUyVTQaLyGayn/fYcT9GcP3GaLCdCponKPxYyDYcnTMHecZNR8czz+Mb3fgeff0TiznlZ8F1eAP+IrQiILEYAO+9FcSmFY1UZHKtKJW9fzP0rNrGGwpFr3mu63H6H8PK6N/36vDF4E6BdfWrsAGSQ4/CufoMeBidvFmgyUPi8kfAmtHm+eS1SrVKh8tzz89FkzWuIy9ksGd6sb9/VlwG/2+edl3N93pyjL7fK5y/ywOKVMxisF2g37RP8NHkT+Knb1MI69CkNap0mfua0M9pfl+cl7OkjlwkAzfhcl4C9NpO+TAiY45+zWwUNMjCQ7oPkegQn1iKYwCfkYysV9GMrMCROryfXSWyB5PDTfy8teHXwH4sJMeo/WUf6c4KQVKdiAkwDofy9CC44CjHvbziKQJs/35O6DR5G7VPpx1VBlP6qUniYn7+8AF//IBW/HPQcsm69CbtGjFQqVgL4dBBfa1EeY97XKp/+bJaZnfQiyoaNQvY7PjiQopU8AV/rA9RfDtT4KNM+1b/JyWcBHhO4p1PzJChPl9HlOlV7K+jbBe/BPOaoJwfcn+scWY2PJn5W47Ob9wX22q8vFflo2o+3cDBBAZ/Bf1KnP8VCS6yFeWMtJF93NcrufwDbnnseJyZMViZ+gT399jTnv6jK9E6c3urHPzlxGk5OnC5Kn9DfPW4SKoe9gLtf/KU03vnW3CwMDi2AX/hW+BP6UaWtiyO6HI6YcgG/tOAN24KB8/JwwyeVt3T1XeYsx/PmDYg3Lt7ML4S/M50HqqWuVP/eVF+dPc/eUpxnAxbfk3Dn+e7KCaE3J6+dPa+ft783TfwmgNab15n5fc+fyucZvm9lchTN260Kn/Bnuh6BT7CnNiiFL81nqPZVvr48x8kB091oIaDCZ4c6beoPMv57Fr5hWhxN+rQI5OyW1wRnNUvlv2DW+9fQHxJfjWAD+pgKDOF6TDmGxFUgmH59+uqZvy+NedicRzXkYdEelcu/TYGegX9JjAuoUwF9tAis2Y+ggmMIKjyOoPVHEEh/ftZOBKbtgCe5AZ7EWmXaJ/QZxEelH74ZziXrcdk/4/Hhdb5YO/AeHGQrWap4mvftSl/UfTvo24rybH7hKWz42MJRmtwZmU9TPpU+8/Q5GpVvyuzStG+gzyA9XUZXYJ+hwG2i9AX8+vnWdTMhsJn+pQSvjuA/SqVPnz4j+E2THRPER9M+VT6Br037VPgC/BQ1YWAw4t5EC5G/tjC/X19scvij4elhOMrKfJNe/JTCF7XPbXoxvnya94+GTMUhA/1nXoDf5J/BemMlbib02VAnsliK9PhHlyGAVfoIe4E+K/WVwcFKfeFbMXjhWnz9/XVBn3fX6MLnvXkD6hk3h88/WYRPR26SBNYXTU3qyPuY89bZ8fO/adse/M6dPf657s/vTCVuVGjbp+i6NW9OYLzxue1WpXM9r6d7Hc/Dl1/l87q5b0V6oQSy0beduROBGc16oXl/GySVLbURbDHLevSM4Bd3AAP96N+nqT9nl+TsB+Uq6Afl7lagJ+xpAcjdJ8APIvDZtpYTC1oLaNpn1T9CP6FWVH4wlX10OYZElwnwgznGVYklYEgaGwJtV0F8OphQKX9VKlhM+kzxYyCgjguQYD5ODgh9mvUJ/nWHEZi7F55MFcQn0KfST6hWSj+mXAfxbZIubje/HoHFl12NTY4AHJ0wUfnrpbOevQIfgW/z5ZsiNFNfweGJL2LD2AdQMs/CSQbx0WdP6LPRDhem7pkAPip9qnwG7dG8r/PwCWyBdrqKyOc61Xyr2rdB35j8xcRvJgvcN1NV5DtlAvpsfn1ToIf+/Naa++2gz0kCLQTGRUDf/vqPLaz+1o3Y6HSi4ZlhqhwvFX17pU+1rxW/MfFT7R+dMBWHxk/GnrGTUDVsFDwTfgTr76G4mU13QgvgG7EV/qvK4B9dDn8pzVuBgJiK1vK8YuqPKIL/kvW44qN1I7ruXtihI3nzhskbE2/63rhxdujLfc5O/FydBTH3Z7zCuSjVzr7X6W7sZ9r2OV/1U097Uxmbz0fTvVGen3pzLzww7+mN8Vx+58/7it50rXjzGjPn1xvn5PPOWdvzr1lWn6GR2TsDWZiGUezizyf8mwX2QanbJbKdpWmlzSx9/+wvn7pdAZ/WAEI/e6dqVkPAc2Hjmpw9qjc9W9Xm7VGPCXy6Awh9xg1w4qC72QUnVIsvPzi2HAL6aI6lSunT3E/lTqXPiYIofVYObJYqgRLVz+ckLqBWq/waDE2ohuT7c4JAKwTN+gXHEMggvpw98HCCk0Z/PpW+KsojKl+K8hTDs2IjBs3LgftHHyPs0ktROnQoTrASH7vFtap8mynfROzTrG9S1aa+ggMh05A30YWaUAunqN4ZrMdIfSp8LpwA2E372pcv4Ge/exbW0bAncLlO6Iv6p6Knr18reyp9gb39MZ+nX5/pfnytrsxnj+AnwKXynoa+6bZHpS/m/UTlDiD05fNkqHiA8hUW4m//GsoffAT1Tz+r2uxS0TMPX1fbkwmAmPlfwqlJyq9vzPtHQqbg4Pgp2D12IiqfHomhY74H66/LcMOsdGXejyyGX3QZ/GPLERBXiYDYSgTEVcnoiKuAY1W5CvJbugHXzsj5ftvV3S1r3rwBmZsEJxY97Y/A/6LR9PxenVH/3rwhd+b8ftHvbX7XM408fneB4UyumTN9ts5uP10qXGfO9en25bXnrSj+zn6/zu5//gN0R4265vrgmI3HBPpUvVT7AuMdAnbJXyfkU7YhkGo/lRXrqPZZopc+f630OVkg0EXV70WggH8XgnL3yELABnIiYFQ+XQJ8DV9P6NOKkFCD4NhKBBP2MeUIXlWq1L4o/UoEJ9WptEHm80t/AAbwNalAQJ3uJ+WCeZz4GgxJqFYLU/f4XmsPInDDMQQS/GsOIjB7l0DfYw/iizf5+aVwM4gvtBC3zcnC8BG/RvTXdCU+RqczMt+0iW2txGdM+7YgPqauTWX53SnIe/le7IjUKt4Ofap8Qt8ewEeVz8kBc/GZcqfVNVPvuH5SQ/8zoKfrwATvEf5mAqAD+QT2aUrxm9Q9+uelMh99+7rTnqTnMTc/sS2Az6h8HkMmG1kq/W9HjIXY+7+i0vZGjMLx8dqnL8V3dF6+8eu3Kv3pEszXFr1P6E9C5TMj8eDY78F6fQmum5WOQaGF8I0qhl9MOfxjK2UJiCf4q9omAFT9DPBbVoDrP87/3enuEl7c1l03oPN/s2g7iQRSV4Kvo+q/J0Cfv3dnb/Sd2Z/fke/RXX/erCzJ7+2trpHdYW3pzO/W0X27azJ35uvnmbenOoLiSk55WJxmdZNS+xwJ+AyOBvbbxLwvFetkEsCAvkYV6Ee1TstA9i4E5uxWaXDZe0RJi6+fJn2B/i4phCPbDPT5Wt3GNjiRQXyVbcBfVSJKX9Q+tyfVQvz/VPoa+kwflOh/SfkzsQE1GBKno/8JfqYCUukT+lT56xnEdwAegX4TPKk6cj+hFm5Cn5H70WXwsCjPsg248eMM/GDoFCRe83XUP/44Tk15USt9U3rXBnkx6ZvGMiqIjx3kdo+bjLwff1ua1YBR+YQ+Yc/iPHbTvknTI/Dzdaode96navDrqntsmkP4iqIn6KnkDeD52P6cfbu2GnBfWgpkMmGq87EcL1vsUtlrdc/Oewz0oy+fZXu5/ym+l3E5ZFnYk2ghYdxF2Bo0RHz60m2PkP8U9GnaZ27+dCnGw4I8p3QQ39EJU7B//GTsHBOCKkJ/zCsC/atmEvoF8I0qgZ+Y9ivgH1cJ/3gC3yyVysfPnP3lhbjxk9zurMpn/rG8Gf1sv5n0BPDzpuVN+J5N/Xvzfc1v+Xmjty073QkFvpf9+vLGOn3k3vjz9u/gjXPRE/5/Leuxj/42LDC+Asq8r836VPBpVPqN8IjCZ6U61WqWtemDkutFlUvEP6P+uS8tBAyKM9DP2Q0Pc+D5mNtZ9c6+iE+fxYBYC2AHghLrERRbhWAG7EWXaZVfiiGrSjBkVSmC45VPX6BPpZ/ZpEBuUv4YF6CzACSnX6f5BSdWK5cA3Q/rDPRVEJ8ncxc86U3yHSVyn9CPU4V53NGlcIdthWvJOnxtRgr+cNcjSLvxemx/6mnlqxalb1P2Ys431eeMaZ/QfwWEftOYScj9xTewP1nn39OUT/M+oW8K8piofZOTT0BrPz6hz3S7Ezal3wp85u1r8/2nRgN785y2AJgJg3Tbs5XkJdQPp6gIfSp8E7h3mBHBmumiAAAgAElEQVT+uiOf5P2bmv+0QuRYOJhqIfnnFrY4A9A4bASOjJ2ofPc07bcuOkefSn8iwc/I/Wk4PmGqBPLRvN8yJgSVT4/Aw6NfhvXnJbiW0F+xEYMJ/dgK+MVVwT++Bv7x1QiI40ITvzbzswtf6CbcNCtvmTfuMJ9zTG+rP/sNqDtNv+2/dne2jD2d4u0J0Pdm45fw9ifcy4+9FRBnv16pyL31d6GZ+LtzQnfmc/7Q+/98MTCuQqldqv207fAwmp3pekkNkFQ2XalOus8lsQNdNQKT6xCYWKca1FDxSxBgMwJzdokZn6Z8Ap8BfbKNwGfRH1oDGOkvEwD69RnM1yTtbIPFvK+j9WMU+IOjSmQCwDQ+Zd5nGWC70mee/3Zd3EcpfVXcpxpDOIlIrFbWAVoW1h0Spe9Zdxie3H3wZO0ELRwqXa8envgauOOr4Y6tgDuyBG42eFm0Bl/5ZwI+vHYgsm67GS3DnlMKtjVSX6v6lzToxY+vK9GJaf8VydHfMXoi1vz6WhxO19Bn0B4VPhdG7XMSQJVfqAvx0LxP/zvL6FLpE/a6pC598q1KnkA33fXsjXcIfAN9Y/K3WQBoJWhd9HsI9BnJn2xJ8R1OAEx6Hn3/kvbH9yD0TWXAXAtHMyysfcdCge9AbH92eFvKHpW+vamOVvpG7Qv0Q6bi8Pgp2D+OSn8iyp94Do+OIfQX4+qZ6RhI6EeXwTeuCn7x1fBPqIF/Qq2MAXb4R5dLE55b5qxN6caqfPZ/rO64gZqbKeHXGV+4/XOeyzpvVt4OWDTfzYynU0XeusnzuB3986ZZubsC9/hduyNKnb+lN+NRvPlbmOuwq8bTXc8dvea6dr+HZ836ZWBMGTwpDUrxUt0zZz2lXoAuaWxsNcsgN2k3W6ka0hD87DfPCQGX1TuUOyB7p5jNBfoC9t1tkwBOBLQLQOBv1H5Gs8r9N+Z9BvKtKlOm/ahSBEeXIIi+fkb4E/D043OywNdpnz5dBLQCBDFyn5MHKv2YSkhwICP++b5U+oUM4jsMT56Cvjt9uwTxuZPq4RGlXwV3dDnckcVwr9iEQfPzcN1fIzD7kmuRe8dt2DV8pFL6djN+a8tYwt5eelYp3ROTXsS2FyZg/Z++rtL1qOjbQ5/+fF1yl410BKw60t5A3wTy8bFA35jZub8Bvk3Vt1oCzARAj4Q9j2Ggz3VTnpfme9bkF+Br6wID9+Q9OWkg8E0aoY45OJ5loWSphQL3Pah78mkVyEdFb1S+PYpfgvimg4V5CP0jAv3J2D9+EppGT0D5E8PwyOiXxLx/7SxCfzMGx1bAN6EaflT5BH5SDQKS6vQEoAYBNPczhS+8CLfNWVtkvYY+Xftf0qGjdYeptP0NiDdUmjm99UcLBvPsvQXb9t/H/vh0qsj+fFeucxLV0T9v+sC9+Vvavx/PrTetJvbfpjMTKvtn7Mj6hWTiP9313JHv2PX7PDB3yV8DY0pVjjphz1K0SXVwE/Jcj6/W+eu6YA3N3+xAxz7z8aobHSPfJdCPMQCZLcpXTn951q7WdQmaE+BT6Rtz/04VNEiA01qQWIuguEoExVYgiMF89OlrpR9E876BPtME2RyIrzMlgUXtN4KBfEGs5hdbAckCYEYAYwZoddhwGJ4Nx+BZdwienL1wZ7bAnd4Ed/I2uPmdE7TSF+gXwR3KyP1c3PbrJZjX51Lk33U7dg1/XpmuqWCn2SBPVS/15vUoj1Wf+OMTX0T9yPEo+NsAnCCcma5nh75J1aOvf53qnmcC+Ix5nzAW6DNi30Tl81h0BRhzuwG/MfcT0lrtM/DOvi6PGdynFT9Htt2V7ntpKi2PsDfAbzXrG+CzQqCOO2ADoPpoC9n3fRONw57DUXbaI/TNOWj17Zua+8qvz5r7TNdT1fgmoXn0BFQ8PRwPj1JK/5pP0nDvik0YHFMO3/hq+CXWySLgT6TaN4q/SqXwRRD6a5qdH6J/1/+ndOiI3an27TdW4wfvqgAw3kypos4H7Pm9zqSK7N+5K9c7A31vWjy6A/q8RroyCLMjv4M3v9f5ukY78r3NPme6njt0U+nynR74eMEMz6piVYkusUZg706shVurXilJG1cJT0wlPLFV8Oge84GsTW+K2CTVqmp2VM0ZTcpsbgM+A+ak3K1R+vLYwJ8lf1W+vsQKxFcjKKYCwVzoy19ViqDoMgQlVKsiQcwaIOip8iVPn+sqGDCYil6K/NSoYECCn9YDTgjy9iBwPaF/FJ41h+DJ1dBP2w53CqFfr6GvlX5EEdzLC3DnnCw4X5mB2X18kH/XHWgZPlKizpWKZUqaTkszZmyqW1nX/uwpL+PYxOmoHT4Om9++AqdoFmdhHpr06cs3pn1OBHQFPumcR3CbyntamRPKjNoXeFPRE/aEvlkIfZvSF7DrSHt5jZ4AcJ0qXywBJqpfbzPqn7CnuZ/vKcDn5+H7EPQEvlkYbJhjYWeChZwR16L28SdVnj7VvZwbe9qeqbuvIveVeX8aDtG8P36S+PTLH38WD1Pp/3kxrp2VgXvDNmNQbCV8E2rgm1CroJ9UDz9R+hr8NPPHViAgohjfnpNz/OqZuKLL/1E6dkDeUM/3TYhKlL533mg7OgmgCmHqFkHfXQrQ3BDbj3z/M6mi9vt21eOeAn1vBb3Zr14CqKvOW0ePw+vKW38Xgon/TNezt87J2Y/7wMylcwOjiuCOq1DQo9pl7fn4ShXJLsAvF9h7YsvhYWna6DK4Gd3OinV6IkCrAIv3MIVPCt7QX86lVfFrs7+Y/A3wqfip9tnwhvX9G0SlM6CPSj+IwDcLTfasDMgKgZImqMFP4PMxI/qlBXC9LuWryveyhn9wxnZJJQwsOAJPAaF/EG6j9NN2wJ26De7kerjp048j9MvgXrkZ7mUbcNOs1fjuyNfwsY+FvDu+jR3PDccxlpmdOE2pWSpaLq2QM9DXE4IpLwn0a54bjeIZl6kcfQLeBPIR/DTt05+vC/II9Al0DWSBP83xLLJD0z4VPAHPCQQXgpgjX2NT+ZJWZxS+AT4nBQzo4zH0xIKTAHmst9OUL+Z/s599gtFe6fN9cyzsTbGw7uWvo+7JZ3CInfaYpy/WEDP5UV31uF1F7ptGO1NwYNxk7Bs7UZn3H38WDzF6/0+L8fWZ6Rr6VRicUAtfwj6ZwG9QY2Id/Kn46etn7n5kMW6bk4vLPqy+4exXvVef9WagV0dvsvb9OAmhOuXCCQFv+lz4mIrvfE9S7J+V62eLVWi/b1c97inQ9yYcOQE8H8Dnb8Rr7Gzg4wSVn+1c/vjarroOvHGcc/1e53IuOvaaIbOWLfeEbYY7thzumAoFPQayxVbCHVMON8HOkrTRpQryUYR+KTyRRWoCwHgALpwssIytUfuZbdA3pn0P/f20ABD02Rr4Wbo2ADMGmBmQUCv+e6r9oJgygT6j+YMSa9SkQIoB6doAova10udkgH795AZVw5+Bf4wDoOWAz+XvU8CneT//INzZe+Be3Qx3RhNcKY0K+gk1cMVWwR1VCveKzRK5f/XH6Rj16I8xx8dC7re/hR3PjcCJCVNUutmEqeKbVtXllMm6tQodu8mxwcyk6TgcMhWVz4xC2ScXqQp7VPqEvVH6fLxJQ9+Y641qJ5x11L3AnvA2wGeZXhbxMc14CH39OkJcivcYVwCPY7MCiPvAgN9MLvQoEwCzL0dODnhsM8Hg+5n35SQgT0X3r3v1YjQ89TSOjdNleFutIDwXr7RNknTDneMhU3BkwhQcJPTHTcSO0RNQ+vizeHC0gj4D+e4N24JBcVUYnFgH3+R6+CYr4PuL2q9vNfEL9COKcfu8fFz13qZ7Onb1e22v7jafeuNmdT6OyUnJ2f689Zk6A31vunA4EfPGH4F7vq9Jvn97yxMfv22DdvvnO3ou+Pt569r4osc922Sno9+va/cb+tGiCE/4JrijiuGKroCLsI8uh4vAZwQ7ASg16LfATZN3RBE84Vvg4Tp7zUdulQkCrQDiF2dAYMYOeFa3wG3AL4pfTQKo7D3cznK/XFgFUMr+NoGd7gIJffr1Y8rVQhM/1wX620TRs36AmPQJfaP6ORmg757BfGzcQ+gnVCnzPqG/Zj88BccE/G6t9F38jOlU+jbox1XBFVUiSt+1dD0ufy8JU4InY04fC2vuuQuNzw7HkXGTcDJkqgSiHQuZgqPjJ0u3OKNgabYWpcuOcpOmS135siefR9Xci5Sap8pnMR5Cn/585uwT+gSpMaEb6BvlbiDM7QStbrnbCl+70tcBgK0FfDhR4Ov5Wi48ZvvjGri3f46P+RrzufjeBvr8vPp9GcG/6Y0+qHr4Ozg8lkp/elvkPl0etITQIqKr8TGQj+l6h8dP1iV4J6Jp1HiUPf4sHmBxHkbvz0rHPeE26FPhi8rnqE38VPuM6Gelvohi3DkvD5d9tNndtf8lnT4aq5D1NAX9RW9e3n49b9yfd4P01mfoKdDn9+tq/zeP11OgyM/BmhZ0P1EBt/8f4XPn8tdddTI6e/31PJXPsxv88ZJIT2gBXJFFcK0qhSuS8OdYJBMBd9gWuFZugju8CFz3rNyoOs+Fb4E7bJPA37OqRCwFovaTasGIeHfGDgmUo6m/Ff4a9mL2p8JnBcDMZsmVp3mfWQNSDyC+FkGrypQvn+b9WEK/VoDOegIK+Frtm2A+49dndT+2AKbCZxwAawpkNiFw7QF4Co8L+BX0qfRb4GIgX2ojXCkNYqngpMcVUQx36CY4l6zDZe8n4pcDnxGlv/au29E8YiSOj5+i8ssnTMGJkKk4MVHlmhNiVP3GhM1AteMTp+HQhKkoe2Ik6hb3UxH6hLyBPn36VPqM3DfmfYKUkOViIG0HL/dj0B8Xwt8ofb2vic6nid4E7Ank+TwXMwEwEwnz2ADegN9YDozK5/vYgc91TgLWWDieaaF0toXaxx/DQTHvT1PR+yaYz0CfOfoTp8l5Y1Eeo/R3jwkR6Jc+9jQeoHn/zzTvp+He8C0YKEpfqXzflG3wTaHa1yZ++vYZ1a99+nfOz8OAf+c+di53ji5+TU8z83f2htXd+3cEdt76TJ2BvrcBw89yrorXfglzAuVNq4Q3fovO/A7279pTTfyfN4m1f4fuW3e9Pz/Gs3w93Cs3whW+FS4qfoKe6zT7r9gIN6HP9dBC5evm49BCeDgJoOoPV2rfHVMm4BQfOSG+ulmpeqPuV7foxwr4tAZwHyp3qQ3AQkBMnUuskXTAoFXlCIoqlcA+Ql+qA7IQUIYqBsRAPq6rwD6j9BsF9CzD2xr8x4yCtQfhKTgOd8FRuNcehCt7D1yZCvqudAV9V0ItXHGVYsHgRMdv0Vp8/cNkvHrLUCzr31cC+RqHDcfRcZNwir3gQ6aC4DoeomBv8s45CZBcdEanh0yRRjLF3x2Gbcv7KUVvSvAapU+fPpU+AW5M6Nps3mpW53YuVNeEvpkkGDM7nyOcs9vy+mneF5eAgTqfty8G7nzerHO078OJB49tlL55PzPZ0NA/kW2haoWF6ifvk/MjSp+gp5tDoveN0leV+HjueN4I/QPjJmHv2InYMWoCSr/7LO4fS+gvwdUzM3APW+bGVWNQUgMGC/AJ/W1K6Yt/vw5+VPrR5QgIL8KdC/LxtffzGJTWE/4utJuuN27kHTlmRxVeR451Lvt0Bjbdkd9OU/i5AoMThvOVZnku5779azoy+Tvd/zZdI+2PdT4f90yVzzPnfG/+KveCXLiWF8K5cpOoesLetWIjXKGFcK3cqMBP4IduhCtMAZ8+b04E2JCG4KcLQPLbE6okxc9Fk3lGk6hpUdRi7if09ZLVoprdZFDpq2JApkiOFAGK13UAokrE3B+YVKdKA7NoEIsIMT1Qm/klCJDw53am/iWpOv6s5S/dALNb4Fl/CO7CY3BvOAp3/gG4cgj9naL0XWka+om14tN3RZbAtXIzBi5cg2s+SsPfrvXF4v59Uejvj5YRz+PouMmtsDegN+An7LiNUFPPTcO+cZNB6O9Y2UcF7NGkfyalT6hqkMrIdTtwCVuj8gl/A2GCOlcpe0bes0a/QN9A3IDbWA+M6tfWgU9ZAgz0uS8XvpaLUfocDfS5nm/hZI6FbTEWSof54cCYCVJ1TwFfpS2a7npSjc/49MdPxdHxU7Bv3CTs0kq/4snntHl/iSj9eyK2YGBCDQanNMA3tRG+qdu0X1+b+Jm2x0p9LNMbthVU+pd+kDfudHeF87CNN2AC5XzefHr6e3cU+Pz5vPVdOgP97lKV/EwMauyI6uc+nIz0NPCdy+91rsGM3rbAdPa7nOukzfu3Kd9354a7F+TBtXQdXDTzE/QrNsFFwC8vlG1MXXMvp8rfCPfyDTIJ8NC0T7Uv5v7NcEcYtV+h0v5S6+Giv5xLZrNaRNm3wEPgc53Al0VDP2UbPCz3yyJAhH5sJQJjmLdfDkJfzP/s+ke4C/gV/Kn05TEnBGwFzCwAugMYB0AfPzMI1h+Gu/C4QN+1xgb9jGa4UreLed8ZT+hXwhVVKtaOuxbk4ZaPM/CPAbdjaf8+2DDwbrSMfEEF8mmlStgT7gr00z5t3g+ZhiMTpkpd+eLHn0NzhA9gCvOYQD6To6+r8QlYCXo7/A3YORL0xrxvwGsmBjkqFU+q97GCHgP1zITBTCQM9DkZsIPfmPrNJMEOe77WLAb45jPx8RpVj78lwULF5IEqep+tdVvr79vy8415f8JUHBk/GYcnTJbofSr95tHjUfnkcDww/gei9Gnev5vQj6/GoJRtGEzoG7Wf3CCBfX6M3mcjnlVlCAjbgjvm5aH/u1ndkfrU0X9O/vP3gv/0wKYlpKN/BFtnb7wd3Z/KuqN/3vwcZ/q8hDlhSLDx2ubIx1STX7Zri37+c/nj/9mZzl93b++5Kp9n1vefs5a7FubAvXQ9nMs2COSdhP/yAjiXb4Br2Qa45fEGBXxOAKjul2+AhxOBFRsRyG2E/qpSyQBwJVTDlVynAuTo2xdTP1V/s46YJ+yblPmfQX+i9HUlQBYEYsogawDEqkI9BL8nWZv3datf6RVgFL+ZANDfn8aOfdsQyFr+BH/GdikH7N5wBO7CEzbo71VKP6MJzrTtcCU3wJVYBxcD+RjbEL4Vdy9Yg3s+WY03L70J4Zdegg2DBqJp+PM4PH4STtB/L8BXZmpJ4dMqnxMAMW9PflEmA2wmU/T4MOyM8mkrzEOlz4XQNyl7VPAEugGrGQ1gDfA5Evingb4U2dHpfQJ8HsMsBvzaKvAp6NvUPfPu+VqpDGhUPl9rPgdHvrd5vFbl6u9NslD2k1t1a93pbXn6NPHrID6wQ+HE6Tg+QQVAitIfOwl7xoRgx6jxaFX6ry/BVZ+k4e7wraL0BfoC/Da1z2h+lub1i6mAf0QxAkI34ta52ej7TsZL53LX8OJresH/2RtyZ4DPn8abN3VCtTN/XzbQdjcUP+/9LmQT/+elJ3bmOvPOvoPemTPfMScTzsVrBPoC/GUb4FxeANey9Qr6hP/SdZK3zgmAe9l6eAh6Kv1QTgoKlc+fwYDM948pgyupFq6kergIVBbAEfg3KZM/zf7M5yf4CXym+Un53wZR+gr61QL9wNgKiegPZAEgVgyUZbu8rlXtpzdJzwD2DRDzPusFMIAvua4N+uuPwL3RBv3cvXBm7YRLoN8IZ+o2OBPr4CT0o8vgiigS8/7gDzMxo//VWH5RP2x2+GP386NxIkQF8BFcErgn5mr68Zm7b+8ipywAbCZT8sRw7I7u0wZ9Kn1Cn5H8DOQzzXYIdALWgJ1g5WKAbyYGBroG5FTmhDUVu1H43Md+nPYmfu5vFqP62yt8+4TBQJ7HNe/PbfwMeRb2p1go/c31ODB6vDLvm5S9Vp++CuLjZOkYgyAlen8K9o9VPn2pyEfz/rjvw/rTElzJ6P0IG/RTG5XaFxN/Pajy/bTK9w/fCv/lhfjGrEz0fSetp0Gf/7yM6O+FhYJ/Z4HP89eToE+V/Xng6n3+3M9RZydhBo49IXi2M+4q87m7d7z37Y9mOudnw7VkrSh7wt4ZuhFOAn+pXpasFeBzEuBuhX+hbPNwm5j/C+BmkZ+oErhiKuBKqFLKOaUBLha/SWuEm/BnZL+AXgFfzP98jtBPJvTrVNnfOG3eZwVABvaxBgCfl65/7Oy3HYEZrABIcz/N+mwUpLsCMt9fwF8nZn9P3h6l8AuPw7XhKJxrDsDJQL6snXCuboYzfYeCflI9nAk1cMZWwBlVgsGL1sHx3mr8u+8ARH7lUlH6zSOexzH2i6eap6k6hCb96UrZm5FmbbbfnfQiToZMw4Hxk1Hy+HDsie2roG+q8Rmlz8A+Qp/BeSYi3wCbUDWQtY+EsYGwgTnVOiHOkdv4vIE+9zeq3ah6M0k4E/AJcy4G/OY9zefg8blo6B9Ks1D5t+twiCl7DGbkOTDAZ1CfnK+pku7ICRPrHRweNxkHxk6UQL7mURNQ+dQI3D/2h8q8Pysdd0cWYWBiLQalNGKQhr4E9CXVq9K8MeXwiyyB/8ot8FuyDld+nI6+bya/2L3/RR1+t17Fr0zTHT5hth17EvS7y6//nzpxoFruSCyD7fKQ1fPherH/RpzU8zrt2X/3/vOjdx1zM+FcsgbOpevgCC2AY9l6OAl8Af86KVIj60vWwL1knVL/y9bBvXSDUv8G/OFbRCEL9GPK4WJgHE3mBD/N54Q/A/wIfzMJ0MBnxL80/UlkDfxa5dNnNUD2tqe5P6le9QIwat9YBzgS+GIpaFQ9AAh8rfYZ3e/J3wtXwVG4Co7Dtf6Ign7OXjgzd8KZ3qSgn9IIZ7KBfiWcUaXwW7Ie7n+txgd9Lhfob3Y4sGvkaDFNi3mfYBMfNaGvK/MR/OLPVo85IWBt+fInR2BvXF+l6mnSN0rf+PRZpc9U5TOgNuDnY7Nwm4GtgbGGrpjrDfD5nHk99+dj7mf36ZuofQN981pODsz+HO3vZ9bN5+Dz3D/Pkg6Cle9cjkNjx6tJkABfFSlqDeSbxInSVJycMAXHxk/BoXGTcGDsJOwfMxEtoyeg6ukRuH/8D2G9vhRXzVTQvzexFgPp00/RSp/+/Pga1W53VRn8w4vgH1qIwQvycemMZFzyZvzZqrqd73/I/1Tw80b+RbrI9SToEy78PvYbfu96156Pc71WaCU4X79Fz1f5vPsNfHvG3/zn0by/Fo4VhXDQtL+U5n2Oa2W7KP5F+WINoEXAvXStgj/9+lT+S7W5f0Whgn50CVyxFZL+5kqqU2b+5Hq4ZOEEgGVvG+BO4yRgG9zMkefC+vdU+vH06VfDbaDPx4Q+n+PrBPyNrbAXk35ao6T0iSVAGgA1IDCVhYKa4MnfJwpfoE+ln38Azpw9Yt7/rNKvhTNWQd+f3+vtVMz0uRSRl1+GLS4Hdr8wBicn0JRPJa/M1bJuV/lU+vRhix9bVeRjnv6+2H6nhz59+oQ+lb5R+3bIm3WOBrYGvgS5XcFzndv4vH1fs5+BPkFPpW9GO/DNMQzwzdj+mHzM53jsPAtHMixUfXwxDowZpywhVPriz9fnQ6wj0wT6nDSxqJEU56F5f0yIarjz1HAMDfkRrL8sxdWzMnBPZBHuTarDwFSt9JMbVEneuCr4RpfDL6IYfis2gb/VbXOz0edf8bjoz7E9JXr/TBMMQsOb3drO103vTO9LBUT3xhf560nQ5/foNfF7F64Xmon/wlD5vHL93n7vdwHzskTpO5ZvgGN5IRyhhaL0WZyGwX3ORfnyvHvJWrgI/8U096+HSyt/1qinBcAt0N+qCv3ElsEZUwFnQjWcibVwEv70mSdzElCnqvdR1Qvo61UZXD5msx929tOBfGzww7x9AX5SAzzs/tfaBnhbq0lffP3czn3EKqBdASy+k7dXQX8jzftH4MzfD2fuHjgyW+DIbIYjbYcE8zmSG+DQfn1ndBkCQjcg6M1kzPS5GPFfH4CNjgDsGjlK9YsPMbX3dU15AT3hxqh1XYtfV59jJ7nyp57H3ph+n/bp2/P0CX3m6pv8ewNsjvZ1A1ozErgG6ASwfeE+Zj+CnMAn3I2yN64AbjO+fB7LQN6M5jinG81751o4km6hZn5fHBpDn74+P6Yoj54kgTUNmPkwXil9mvf3j50IFudpGTUelU+NRNDEn4jSv272ajHvG6U/KHWblOMdHF8D35gK+EWVwDdsC/xCCzBoQR6unZkBn3fj0PfPcc99Ebp042upDM4Eyi/LdsLxXEy17X+GngZ9b36e8/nbn+9yvfbvznPc2b/zZeK/MFQ+z6bzH//4qXNeFhxi2i9EQNhGMfE7l6z/lNoX0z+Bv2gNXIvXKOAT/kvWwbN0DTy0ADDKP2wznJHFcEYVK+jTP07wc4mvEZ+5FMFhIZz4anEB0JxPV4A7oRoeLgJ81vuvkGA+aXlrOvnZFH8r/JnqpycCDODzJNchMKVemfwZQJi3F86CI3AVHodz/RE4CP0cDf30ZjjSm+BIbYQjSUHfEVcFJ1PAQgsx9M1kzLEuRuxXL0dxUBD2jBqj/NUGYmLWJ+zpxzcLVb7eNulFaR9b8dQL2Lvqojbo059P3z7N+8anb6BvB78BL1W+AXj70YCao1ns8DdgPp3KN8C3v87A3by3GdtvN5+DE4pcCyzFW7PUwoHRz2ulzwmRVvksy0t3SMgUMe3Tp0/wHxo7CfvGTBSlT/N+xRPD4Jz0U1h/WYZrZq3G3RFFEOgn1WNQYh0Gx1djcEwFfKNK4Ru+Fb6hG+G7eC2+NTsTV3ycCusfq3DJ6wmPdPZOcR73543tyxjgx+90rlHYp/s5vAnZc1WVX7biSwZcPeV6NJ/ndNfD2bZ1t4mf56srJrZn+05d95zfG3+bykA+UfkrNsLBJVSNDOZzLF6rVD/V/mJt4hf458NNv/7ifLgXr1Emf6r/lZvgjNgKZ2QJnNGlcMaUwxlXKVHxjIyX6HhGyMdXiQtAutrFV8HNRjfscMeWvfTjs+aXUu4AACAASURBVKc96/9zndvZ6lcsBEzpq1WWAXbGE8hrfz8D/ZLpArD5/5kpkL8Pzg1H4So8Bue6w3DmEvq74cjcCcdqKv3tcBL6Wuk74qvhiCpFwMpNuP9vCVhgXYTYKwegKNCNfaPHCrRo2m+FvFH2reBnipqB3Ys4HjINVU+Pwr7Ii9ugb4L57NH79OnbzftU+Ab2BKuBrB3oZp3PcyG8zTaOBvjmeULeqP2zAb+9hcFubeA6j83PY46fY+FImoWaFRYOjHsOVPQK+Po80P2hVT4D+I6Pnyw9DBjEx2XP6BDseGEcyh8fBr8p/w/WX5ejVekn1GBgYh0GxdVgcGwVBkeXwzesCL4rNwnw75ibja99ko5+HyTBeiMC/f8c5+m6/5BuOxJvcF8GPzG/A79LV98EeyL0+Zm+DL8Z1bUdsD0lUJHn9lz+ujuKvyfHEH32/HneeHWEc0GWqPqAlZsREL4VHOnfF9M+/ftL18K1kCb+dXAszINzUZ5S+4T9Igb3rZWRaX1OlvNdsRHOyCK1rCoDTeWO6HI1AeAkgGZ/+vx1i16CXRr8sMsfYc98fzb6Yftegp+TgvhqVRufFgFxC3ASQD8/4wA05Gn6l6W2zcTPLnpU+gzgKzgq0Hfk7YdDoN8CR0aTmPdF6adsgyOpHlT6ARElCIjYivs09FOuuxbFgYHYP2qsLVBPq/lWhc+gNR24ZsZJL+LYhKmoemYU9kZcrKL0CXqj8rlufPpU+kbtt/fjG9C2B7sd8lw/3cLXUOW3N++bbeYYRsmb0YDfPprnOJpJBY+TbeEozfthFg5NfKbNvE9LiAQ3ThPoM4CPKp8ZEIc18PeNniCm/caRY1H23WG4a8p/i9K/dnaG5OnfG1ulSvEK8MswOKIIg1dsgu/S9bh7fg6umZWB/h+mwHovHtbfw3DJn9ff8tkr/YLYQohcqOrRW7A3P1xPhD4/W3cDxm7+7qr10xWz6ikxC+diLeKEs7smY1T5F9Zf8P+Me9C5IOuUM7RQAT+ySCqbidpn0xkG9DGdj/79xflwLlQmfvHzs5Ifo/kX5sG9KF+K90jK38rNcIZthiOyGI6IYjiiSuCILJGRqXDOVaUSHe8k4Fnylw17VpXI6GHrXnb1Y1lfKe1bpiwChD7b9xrFL/DnBEBZABTsVUyAR7bVwp3aIPUBXPl74SD0GcS37hAcufvgyN6FAPr0tdJX0G9AQGIdHHHVcIRthWNVOe77ewIW+lyMpGuuRMX99+Og5KBrf7XJQxfA22D/qaj1l0Tp1wwbhX0rLvk09A34CX2m7Bmlb4BvYGvUvhkJ29PB36h5O/gJ5PbQNwrffgxC3LyfAbt5bB/Nc3bo83ha6VevtLBv0mOfdoHQv88YCKbpjZ8srXfZv+DA2BAcGBOC3aMI/XFoHDEGJY88iVumvyrQZyDf3WGbcW9MBQbGVGBQVCkGhSvgD16yHnfOy8HXZmag34cp8JmRBOufMbD+smLnra/hkgvrv/Azn/ZCgr+3YW9ODgMBuwpy7Y8Tbt7kHMcLeaJ2Nqj2BP8+Jx/n8tddJv4LS+XzTD70g+DbHXPTTjpWboJ/ZJEsbFFKxe8I26T8+1T7y9a1qnuBP+v1L1oDJ5X/Qip/FdXvXFYgat9JawGPEb5Fjzye2uYM36pdAMVS7tcdwba9WyXy37TvlS5/kcU6779cKuWJ2o9XoJdgwAQ9EUisgZvd/WRSUAN3vJoc0MzPOgBK6R+GY8NRONYehCNvHxw5ewT6AaL0tyMgbbuY9wX60RUIWFUKx6oyDH0rGYv6XIrk669D2dBgHB07QQXqteafs6HMK3o5vdJnqd7aYaOxN/SyNujTl0/o059vV/o073MxoLXD2JjUORqVTcAT3uaxAX/70ah6A3w+5msNvPl+Bujmvc1otpv35cht5r3zVMnfQ6mq6c7uyQ8L4FWVwjbgn9TAZ2tiqnwq/D2jJ2DnqPHY8fxY1A97AVseeAxXvfwb5dOn0l+5GfdGlWBgZAkGhW/FoJWbMHDxOtw8NxtXfJIOa0YirH/Hw3onGtbfVqLva8sSLAs+53KX6IGvMfDvKT5WOyx5Uz0bMLr6dHrT5PxFy6ZSWfYEQNp/n89b5zXF6+tsf3z+fF57HfmMZ/r8tF583jn4os/z8114f6OCrUuds1YdoP86IHIrAqJK1BJZjIAVhL7y8dO/T7XP6H0BPSv4cZ1qn+pf+/adKwpU9D8Bv3KTAF9NIDZLQx/GDNCq4ORI/z8r/0mXv81S7166+bF7H7v6RbK0b4lU+KOvX+IAGPzHMr+JNWBAYGtMgJj/CXxOBOgKqFF+f1bcy6XSPyxq30A/IGsXAlY3Q6Cfvh0BKY0IoGk/oQYOWjsSa+GILEXwP1KwqM9lSLvxelQ+8AAOs20sffhG5ZtRTPx6AmBX/pNfAlvs1j03BnuWX66gT9DTrE/wczQV+YzSt1fdMzA2oLWD1yh6biPkjao36wb07Uc+z9eaYxLg5n3MOh8biwO3mfc16wb4PDZr/mdaOJhsoXyZhX0hj0jAnqh7+vYnTIEB/uGxIdJ6V4A/ajxaXhiH7SNHo3H4KNQ8OQxrAu9H/x+9LtH7A2am4u5lG3Bv2FYMZAOk5QXSRe+a2ZnoQ/89lf1bUbDejJBJgvW7eej7i9ljL7z/wg59YnYOpKLsLrNl+xsi35egZy/0rvbXd+QE9GTo8/NfSODvTEbF+QI/r/Uvcp3xtd7+X7nwVL75T3N+sGhTQGgB/COK4B9VAv+oUllnAxMHF3bgY21+LjTzs5AP1T39/IT/Aq326QZg8B9hz4DA8C3KVcA4ATMJkJr+Ba21APwI/YW5kgIo5XxZ138lO/htgjt8s8r7ZwMcFvthAKAsGvwyAaiR4D/GBaigv0oVFMg4AJYCztgBR+5eBNCsT/DnH0BALlW+CuILSN+BAB3EF5BQKyZ9wj8gvhYBkSUI+mcaFve9Ask3XIeqhx7E8XETVQDfNKPuvwe0rmulLxOBtmC+EyHTUD98LPYsuaIN+nalT+iblD0DfDtwDWgNeA1wDdzt0DeAp6Ln82Yfo/DNNo7toW+UffuR78+F29t/Bm3aP5FhYX+ShaKFFvaMeQSnWLWQsB83CSfGTcKRMRNxcHQI9lPdvzAeLc+PRdPIMQL7+mdGoObxp1H+0KOIcLlh/fDvsP6wAP1nJOHbi/Jw9+K1uGNBPq6fk4XLPkqFz7uxsN4IU6D/w0JYv50L6+fvn+r3/z54w8KXRuWbf8/TjQQgb9zeNGEayDPAi+/3RW7Ap/sOnd3W06HP78Nz1JNN/fxNz6XtNMHfXZYMfsZzLcxjv6b4mdtPXLvy8YWp8s0ZuuvNGX/zW5QLf/aQFxN/MQIiipSPnyZ6Ql8WwnodnGLWV5H8zoW5cGpTv5TyXbYBjpWM/t+kX6/AT+gHSGZAIRwEv0we1km99IGzM+FelKcCAnVdf3bwYzMfN6v8RRarevhM/2PhHEb+x1WrCQDXbfCXokCMFeASVwG2zWV6XsDagwL+AEJfTPs7ReUHpFLlb0NAQg0CYsrhn9wA/6QGBMRXg24O97/TsaT/15D+zRtR8cADOCbQfxmYRth/z2baN5MAqn2Tuqdy+I9PmIqG4WOxe9FX26BvlD5Vv1H6JojPXor3dMC3Q5/QNY8N8M82toe+gbiBugG8eUzQm21mX/v75eh2vmkW9sRZKPjAwp4RTwjoj4+diCNjQnBw9ATsfWEcWkaOwY7ho9A47Hk0PDMCdU88i6qHv4uKhx5FcfD92OQKwh/cwbCm/wHWL2fAejMM/T9IwmUfpqDvvxNgvRUJ689LYf12NqxffgDrv/4J64dv7O7z/Tc/7v/9N53mev4PHOnv5s2cgGbRH04GeFM6m9Lh81y4L83bnERQxfM4vGH2tL8LAfrmnBFaZzv3XQmfjh6rM+refI/2I6+vjr5fZ/fj+eLxu2py6e3J14Wr8vmr3vXTkLuu+/fKQ4MW5sEvtBB+YZulNzmbmARogEt5Xip9pvBR3bOC36I8Fc2/cA1cEtG/Vkz7hLpAnqAPUypfrAYa+jTpS6lfKf6zHrfNzoZzXnYb+HWVP9b0Zwogm9+w8x2zABj574qpVH3vqfpj9aKtAGLelxQ/mvqZ/18jQXv+aw4igEvePtC075/RhACa9ZMbEBBbiYCEavinNsI/eRv8k+oQEKsi+P3fz8SSi65C2g3Xo/rBh3F8/CQVoU91334xpn76+G3R+1T624aPw675A1R0PiFP6HOxQ9+Y9wlae9CegS2BbYDL0d4Jzyh5jly4r4G/AT0fm3VzLB6bUOdoFL4BvoG9eZ77mNfzWCzyk63a+R5OsdAUZSHntxZann0GB0aNx74XxmPXyDFoGv4CGp8ZjrrHn0b1d76LygcfQWnQfdjiCkShrz/W33sv8r59OxJv/uaBb393xAlr9M9gTf09rJ++A+vVj2D9z8ewfvE+rJ+8DZ9X/nq4z/Q/FfSZ+to/rSl/Gm6N+r8B7e9MvY+/lGfgQoI+fwBOnLwNno6AlZO6rpzEdfX36mrYm3PfkXNzrvtc2Crf3B4G/OJnj1721vLm62am4Z6F+fBdug5+yzfAnwBnlb6l6+Fgyp5E8q8V876D5n1Z8uBYkKMmAlT6hLv487fAP4LQ3yJpgJISaCr+6fr+DBD81txc+M9ZDdf8HLgW5MLDTAAdGNhW8KdIRf0z5S+WSwWcAv9KUf8u+vz10ur/T66DM307HOnb4U8Tf/5+BGTvQcDqFuXDZ2peUi3807arJYUqvx408/tL2l4x7v4wC0suvQFpdvM+4d6q9Kn22wXz8bEN+gzkaxgxFrvmflVF6DNwz/j1DfQJfCp9Y943wDXAN7A34NZwlza4BDG3c5sZ9fOnnQDwWFzMsTma97MD3v68eQ3fi8fWzXrYyvdoqoV98RaqlvVB8rCLUPPQw2h44hnUPPokqh56FKXB92Or042Ng3yx/s67kX/rrci68QakXHUl4gZcjqgBlzWHX/mVN9678cabnE5n//7DJgVYz//wqT6jfvJyn3E//0Hf8b+c3nf8L567OOS3d93+5LsXm2u2d/yPOgMXGvTNj9PVkOwIqAxIuxL25vuYkcem9eBczP6EJl/L39Qbf96ebF3YKv9TZ/y/3r61z+8/XNjv78tOfv2DRHxj9mrcMz8HgxfmwX/RGgQsykfAwnz4z8+D/4J8Ufn+C/LgNz9HBfVR/WvzPk35/mFFCKC7gLECbH1K+IvaV0pfqgAuWYvb5+dj8NxMBMzLFleBeyHBn6cK/7CZz8qNkIh/k+5ncv45ismf6r9tccfS/18pKt+Ztl1A70+TPoP3Mprhn7YD/inb4L+6Bf5pTUrhE/jJ9fDnJCCuGv6xFWLev/vjLCy+/GYJ5Kt66KE2nz7VvCh9beIn5EXhG5VvfPrTJWWP0G+ZNUBF5lPpG/CbyH2j8o1p30CY4LWrawN4rbQ/A32qbwN+ju0XcyyO7cFvIG+2G9BzNO9L4NsU/rE0CwcSLOyIsJDzTn8sG+CDrOuvRd7NtyDnm99A5rVXI2XAV5Fw+aWIufQSRFzavyX0kv5rll/c/+PFF/f54ZyrBzg/dDr7f+o67H3QewY+ewYuVOibb0JIMqLcW3EYBD3dNDxPXWUiN5/980Z+N7qF6B4izPk57Au3GdeRtz8bP0tHJkbnus+XQ+V/5hf9+Z9v6ffzv/ytz/9+0tT3rTB85b14XPNxCm6dnYF75mTi7rnZGDwvGwPnZmHQvGz4zs+F77xsBCzMk8p+Acs2ICBsE/zDqfTt0N+sFD/V/rICOJZugGPJety9MB+DZq+Ggz0AFuQoxc/gvoV58LDkL6P9w1jpr0ha3jLP3xFDU385mOvftpTBtapMB/2xvW+1lNf1z9kNv/wD8F9zCP55++GfvQd+q1vgR/iLSZ8Kvw7+ibXwT6hRKj+2Qj777bNysGjAHUi94TrUfOc7yrxvlH5rqh79+YS+LVe/teb8dCnO0zB8DFo+GaCUPHPyDfiNP99A35j1jeJuD1sC1zTKybZwykDePtpVPtcN+M2x+NhA/2yjeR1Ho+6zVHre8XQLR5KVwt8RZmHzzIuw9Ad935tx0SW/mdevzx8W9evzh4UX9/nFwv59py+44tIRn1x5+aCFAwZc+ZlrrXdD7xno2Bm40KFv/5YEH7+PicGgWia0OwoigoevIVgJ0y/azMj+2S70dW9Nqsxv8yVS+af5qW9/8vaL+/7kf5/r86t/Lfb534/3+fx9Ofq/G42vzkjAVR8m48ZP0nD7rNW4fWYG7piVAf+FufCnn58ugdBCUfZ+VPhsfSpKfyv8WfWPaYC0CLDe/5J1yp0wezX85mbBSavBfBUc6FnIWgB5qsUv0/vCtyjws8SvKfDDkRMAwj66DK6o0rb1+Co4qOCzd8Ivf78sBD4V/meBXwP/+Gq1xFbCP7pcPvO3Z+dg/lX3IvWG61H1wINSWEYC9UwQn4ncb03Ts4GfqX2TpuPo+Cmof24Mmj5oB30C37TUpWmfwDeBc4SxgXQ70Av0jXmd7XH5vH0fA30zETCP7aM5tgE7H9uf57o5LicXmcp3fzzVwuEkC/vjLDRHWKhd6oOC9/udjP1Tn99bsL4s+fGn+W/o3XSez8CXCfpnO5VUqlz4fc1CqJvtZ3vtf/pz3rxGCP0vqco/w2VDX+vFP3ztmT6/+Md8n998cNj6y2L4vBmOfu/G4JL3E3Ddxym4ZWa6WAD86QZgTACDAlduVoo/fCv8xLe/yWbmp+Jfj7voLpibCQd7AMyniZ/gz9GmfhXVz3oBVPtS8CeqSCr8sbofc+mdAvoSNUaWaPCXSs1/R3Id/Fc3wy9nL/xy98Ivaxf80pvgl7oNfkn18NPq3i++Gn5xlfCPr4Q/o/ilT/tW3DQ7F/OuCxCl/xnzvih9u8LXUfutzXbYO34aDo+fIsV5tv/7CuVHZ/Edqn0uJlXPnqJnzOmEbpYKlpOR61Taq/X2TKW6W5W/sQAYWJuR28/0HPcxz3M070HIZ1igoj+aYuFQkoW9MRZ2RlpoWG6hfG4fbHi3D9Jf75u1/FfWkDNcNr2be89AV54BA772UDRwPN1IszPN6mdb+Lrevwv/DPSqfG/9hreNenRA3+//76i+P//HCp9fv3/Q+tNC+Pw9FH3+FYNrPkjCDTPTMWhBDvwWr4Hfsg3wW0H4b1ITABYBCt0oqXpSGyC0EAPn58F3bhZcC3LgmJ8rI0v7Sv4+0wEZPMiUQRb0YQphRJFedDc/dvWTpUSl9zHFjxMC+uUJ9Ywm+Gbvgh+XjCb4pTQq2BP08VXwi+VSAX+2ayXwo8tUrYKwrbhpXi7m3BQkPv3qh7/T5tM3Cr+9SV/M+rom/6TpOBEyVRrK1Dz9Ara9d4VS7wQ8wW9M+vTjczH+e6pvAphQ1/A9lWGBufAEMddlXK2eF1Bn2iYIVP9czITBPLaPen9OIE6utnAiXQH+CJV8ooX98Rb2xFhoCbfQuNxC9UILRZ/0wbq3+2D16z4NSb+13ln5E+s+b11jvcftPQO9Z6D3DHTiDHDiZkzw3hj/s1T+2U78vaMeurzvj14b3+9n/xdv/c+MU9Yf5sF6YyUu+lcMmAlwx7xsDF6UB78la+G/bAP8qf5p+l+xUbIC6P8fODdbAM98f/rxJe+fsDfgZ4rgsg3at79ZFQwi/CMV/KW5D/39XAT+anREl0oqnl9qI3xXt8A3oxlc90usA5W9f2wl/KLLBfR+VPbRZfDjElUKv8gSsUjcPC8PH972oJj3mbJ3QlL2WJHPFrBn/Pc054tJXzWZOTVB9Y1nv/iqp0ag5p3LlQ+ecDdR+iZwz6h7lrQlzFdbYJDcsVS9pKiRkfJm2/E0BX8zETCTBE4UZCHQ9QSBIycNfA2PcSTFwuFkFYS3L9bC7lUWmsMtbFtmoXqRD0pn+WDz+z5Y81YfZPzRZ3fib3yi435u/XTZz617e834Z/uP6H2u9wz0noHzcAZ6Vf55OOnWJdN/eEvfH/xpus+P/57q86v3Tlh/mAvrrTBc/O9YXEP//5xMDFqQC99FzAbIh/+StfBbug6+c7LQatanH1/An6OUvjTzWQPp4MfOf9q374hQNf2ljW/EFjjDtkhXPwfb+kpr3yLVHjeuCn6pDfBN3wHftB3wTaqHL7dR1RPwq0rVEl2qYc+xBH6RxQL9m+bl4Z93Paby9B9+GMfH6Tz9KRr6rf3i6b//bEc51pjfNWoCyh97FiVvXibgFV85IU/4M2CP61T3uQrSJ9JUkBx95wyWI5wPJVo4nGDhUILyqVON0+TO52l+l4mAfWKQosDO5/naA/EW9sVY2B1toSXCQmOohbolPqic54PiT/qg8F8+yP+7D1b/0Wdn6u98UuNftf4R/f+sKct+YN3+2mtWn/NxPfW+Z+8Z6D0DvWegA2eALhxvqHtzzF6V34Efwbpi3Lir+770u7F9v/enKJ+fvbnX+t9Z6PPGCpkAXPVRKm6alSGTgDvnZOEeidynP595+jlwU/Evytfd+/Kk3r9r6VrJDCD0pTRwhGnmo0oFC/Slu98WCfgj/NnZjyZ73+R6+KY2YnBSA3wTawX6vlT4VPSrSjTsiwX0fhEl8IsohgQgrtyMW+fn482BTyP9xutR88ijqiLfpOmA8dtPni7Bepg0TbWTDZmGUyFU+JPBTnL7x4Sg+flxKLr/MRT8rZ+kt4lPnr50ExXPoDlWtlutlDhhL3DXZvYDcQrY9KnviVa+9b2xFvasatvO56jY90arfXZp5b59hYX6pRaq5vugZKYPNr3fB+v+0QdZr/sg7fc+jYmvWtExP7deX/kT67llL1s3ozcYryOXd+8+vWeg9wz0nDNAKBtAe2Psjfno7G/90EMP9esX8rP7+7382z/6/PTvOdarM05Zry9C37cjcen7Cbjho2R8a2Ya7p6diUFzshAwPxsB83O0qT9HIvilva8U/imUbn1S4c908ZMeAWzow5a+SvVL3f9VxRKU55tYh8GEfnIDfBNq4BtTCd/YCviuKoVvVIlaIovhG1EM38gi+EYUCfT9VmzCbfPz8UbA81Kcp+bRR1TKnjHjmz7x0jp2KmjOP8Fe8bqLHOvM73phnNSXX+d+ABmv+QiACezjycqXLoF5mcqnTsVORc7IeO5Dk/uuKAstkRaaVlrYscLC9lALDcssNCylUldLzSILVQt8UD7XB2Wz+6D4Y2Wa3/BOH+T8tQ/SX/PZnfxbKzfxVevDqJ9aP1r6A+vhRS9bV3f2d+zdv/cM9J6B3jPQw86At7vp0W3Q+/dFz8A1o6Zc3/el/5no88O/pFi/ev+Uz1+XoN87URgwIxHf+CgZd87OgN/cTEnhYzCfdPJjvX+m+K0oVN3/mAkgrXq3wME2vnpR4GcL380IoIk+ulzU/eCUbRicXI/BrUq/DL6rlHlfwC/QJ/AJ/63wDdsKv9CNovRfd49Dxje/idpHHsXxsSFK0RP0rbCfIsrewP7A6BDsGTUeO58fh+3DR6HqsaeRHHAPwn5kYc1bFkpnWdi21MKeKAX4gwR9rIVdkWppCrOwTcOdQK+Yb6Fsjg+KPumLLR/6YOO/VUDd2rd8kPd/Psj6ow8yfmch6X+sfQm/tDbH/txaEP6TPq+u+LH19KwfWDf1qvcvesX2vr73DPSegR56BnpVfg/9Yc78sUZN+kbfH78+zee//5Fh/X42fN5cia/8OwbXE/6zMjBwbib85+eI8mejH8fyDVIDgG1/TXlfBfxNqvSvwJ8uAAV9RuMPTqjBoOQGDE6qk/XBcdUYHFMO3//f3r0GRXXeYQB/zy64ioYI07RCvUZMlT0HwSZD0yQdk4xR01abaC2Jk5RM0qKiCQZj0pEYYkkM8UY3NQElsAYFsizsLrDcgxVvoGBAuV8ijTRj2w92Mu3kQ1OeznsWY/rB6WSUsHienTkzO+jsec/vPTP/fc6e83/Ler+W9q8m/W5EubsQ5WrXi/6cvCbsuPdpNEwPw9DSpb6iP7Jc7JdPXkv11wp9HP7++K9weeUqXFq+AhcfWobO2PvhXPj9M7lrldNFCcq/a5IFTrwucG63QOd7CvpyBPreFxiwC3RnK+g8IC/DK2jZp+DMLhNOpik4tl2g7mXxZfVL4lJlsjjqfUHkejaJFFeieKogMTDWsUFMY3G//mnGf6EABW45Aab88T6lloSX5omkNzOVbVl/M73l0BsB3ZFVh4icY5ife1y/7L+oYKTwy8QvH/+TRb5YLuX7v0Vf7/MvL9N7+3yFvl4W/SFo1YPQKj+B5h2A5u1FVGkPtNLuka0Lmkz5civpQJSzDbM/aMSr98Xj5MzpGHpkGb5Ys9a3VGzcU/jnmrW4sloW+TW4vGIVPvupb1GZiw8uQf8Di9Edex8+tkahfvqMz/aHhs6Q82NbHmH54BkRW/Ss+TlXgslWvlGUVyUpDTXJyrm6LUpbzRblbPWLosb7ginfs9H0Tsl68WJ+glhWuEnMtdkE+86P95Oc46cABW6WAFP+zZIc68/54c/Dg8Tm3b82vbyvRUmTv/17MDWzFjOzj+o9+qOP+Jr/xIx0/ospbvOt7ueUl/59i/3IS/+yBfDCCl/RV+uGoG81n44U/X5o8gvB1aLv6Ybm6YLm7oLmkkW/HVFFrZh5qBHb7o3H6VkzMLTkEfxjdRyuPB6Hv65chb88uhJ/XrIcAz95CD2xP0ZHzN1oUxfibMQPcDw8HHXfCfmiLCTYkRdsiRhrU+6fAhSgwC0kMNopX7Y45mssBCYnJDwcsGWvW7x+aFjZ60bQezWYkXMM1rxT0It/YTNi5AqA8iY/2c9f9umXPQCKL/iKfrks+oO+gl97CWr1INTKT6DKgl/eC62sB+rVgu/phObuhObqgFZ8AZqjFWH2U/jd3XGoCwlGb+yP9KVh+x94EB2L7sHHwRB+4AAABANJREFU8yNxZvYcnAgLQ31oCKqmBA2XTpow4JpkziuYGPhsVvhtvFluLE4a7pMCFLjVBUY75cuuj3yNpYBlU8pc0+a0d5RXD15Wdjkx5d1qvfd/pPzN/3CjvgLgIrnKn7zZz9mqJ365rK+8Q1+tGYT1o0uwyqJfNQjVOwDV2w+tbCTde7qgujuh6sW+HZrzPDRHG9T8ZkzNbkDygqWwKwLeSRNRPWUyvEFB/yq1BPaWWCa4nYGmPfmBgc/lBgfdYwsNDR5LI+6bAhSggAEEmPINMMlfHaLsAGhJTE0S2zIHxFtF+nP/0w7WY17ucUTJR/2ONCGmsAXy0n+0q11/HE+tuqgXfGvtp7BWXtRTvlreA7X0WrFXiy9AdZ6HWtQGVXYJLGjGnXmNCPhj7fDCxMK7doeFzXr39ol37p0eHArBhWW+mhC+oQAFKPDtCjDlf7ve/rE3WXgnPP/KY+atGVXi94eHzRllCMmsxaycBmh5pxFdcBbRRa2I8nRAreiHtXoQkbL4y/elPbC6O2EtaYde7B2tvkJf2ILIgmbMy2tEmP0kArKOQqSXyXXvuHqcf0w7R0EBChhbgCnf2PPvO/rb4pPnm7Zm5Cip2Z+b9rhwe2Yt5uY2QDvSCE2mdk8XIr29iCzv099bXe2wOs/D+uE5ROY3467DTZhz6BSm2U9gysFjMGd+BMVWCZHm+I85peRnNKYABShAAb8QYMr3i2nwl0HEPzrNsnnnOrH9QJ9424mJ+6vw3ff/hIj8Jsz/8BwWFLViQWEL5uY1Idx+Uv+9flJWPcz7a6BkVEDsckO84YDYZofYknU84PkDXDLWX+aW46AABYwuwJRv9DPgese/eLEIMCelrlZesVWI1Nxhke5E4L5SWGxemG0VUPaUQaQXQ+zIh0ixQ2zNgkj6w+diw94Gse7tN8Rv0+7nJf3r6fLvFKAABcZEgCl/TNjH2U4nP7Hie+Z12x8zbdj5mkhMPyjW77SL9W9mm36zI930TOpGc3zKL0Rc6mzxS4d5nB0ah0sBClDAKAJM+UaZaR4nBShAAQoYXoAp3/CnAAEoQAEKUMAIAkz5RphlHiMFKEABChheYKoQginf8KcBAShAAQpQwAgCrwkhMIobe+wb4SziMVKAAhSggN8LyP73TPl+P00cIAUoQAEKUODGBZjyb9yQn0ABClCAAhTwewGmfL+fIg6QAhSgAAUocHMERjvlp96cYfJTKEABClCAAhS4EYHRTvnyPgG5D74oQAEKUIACFPADAVmUo4UQi4UQ8jl9mcwzhBAuIcTRG7zBjynfDyaYQ6AABShAAQp8UwH5HP//+3Jw5WuP/DHlf1Nh/n8KUIACFKDAOBO4+uVAfkEw3Ou/RJkYhI8mDvIAAAAASUVORK5CYII=;" vertex="1" parent="1">
          <mxGeometry x="410" y="240" width="89.69" height="26" as="geometry" />
        </mxCell>
        <mxCell id="UMgLE48t6Uz4dZOfTjDk-29" value="" style="shape=image;verticalLabelPosition=bottom;labelBackgroundColor=default;verticalAlign=top;aspect=fixed;imageAspect=0;image=https://images.ctfassets.net/un655fb9wln6/1k5wBPhbu5kXiaYlFWgEJE/b590772959bd510e64cf230ef37bba3e/Make-Logo-RGB.svg;" vertex="1" parent="1">
          <mxGeometry x="510" y="177.13" width="96.77" height="20" as="geometry" />
        </mxCell>
        <mxCell id="UMgLE48t6Uz4dZOfTjDk-30" value="" style="shape=image;verticalLabelPosition=bottom;labelBackgroundColor=default;verticalAlign=top;aspect=fixed;imageAspect=0;image=https://upload.wikimedia.org/wikipedia/commons/thumb/0/02/Zapier_logo.png/640px-Zapier_logo.png;" vertex="1" parent="1">
          <mxGeometry x="521.68" y="233.19" width="73.41" height="33.61" as="geometry" />
        </mxCell>
        <mxCell id="UMgLE48t6Uz4dZOfTjDk-31" value="" style="shape=image;verticalLabelPosition=bottom;labelBackgroundColor=default;verticalAlign=top;aspect=fixed;imageAspect=0;image=https://digialpsltd.b-cdn.net/wp-content/uploads/2024/11/OpenAI-Nears-Launch-of-AI-Agent-Tool-Operator-to-Automate-Tasks-for-Users.png;clipPath=inset(29.88% 28.67% 23.96% 26.33%);" vertex="1" parent="1">
          <mxGeometry x="410" y="465.81" width="88.98" height="51.41" as="geometry" />
        </mxCell>
        <mxCell id="UMgLE48t6Uz4dZOfTjDk-32" value="" style="shape=image;verticalLabelPosition=bottom;labelBackgroundColor=default;verticalAlign=top;aspect=fixed;imageAspect=0;image=https://www.gumloop.com/images/gumloop_logo.svg;" vertex="1" parent="1">
          <mxGeometry x="430" y="290" width="132.74" height="40" as="geometry" />
        </mxCell>
        <mxCell id="UMgLE48t6Uz4dZOfTjDk-35" value="" style="group" vertex="1" connectable="0" parent="1">
          <mxGeometry x="418.16" y="349.99999999999994" width="32.68000000000001" height="39.79000000000008" as="geometry" />
        </mxCell>
        <mxCell id="UMgLE48t6Uz4dZOfTjDk-33" value="" style="shape=image;verticalLabelPosition=bottom;labelBackgroundColor=default;verticalAlign=top;aspect=fixed;imageAspect=0;image=https://www.relay.app/assets/logo_colorized.png;clipPath=inset(0% 76.33% 0% 0%);" vertex="1" parent="UMgLE48t6Uz4dZOfTjDk-35">
          <mxGeometry x="1" y="1" width="31.68" height="30.34" as="geometry" />
        </mxCell>
        <mxCell id="UMgLE48t6Uz4dZOfTjDk-34" value="" style="shape=image;verticalLabelPosition=bottom;labelBackgroundColor=default;verticalAlign=top;aspect=fixed;imageAspect=0;image=https://www.relay.app/assets/logo_colorized.png;clipPath=inset(23.53% 0.67% 11.76% 27%);" vertex="1" parent="UMgLE48t6Uz4dZOfTjDk-35">
          <mxGeometry y="32.00000000000006" width="31.57" height="7.79" as="geometry" />
        </mxCell>
        <mxCell id="UMgLE48t6Uz4dZOfTjDk-36" value="" style="shape=image;verticalLabelPosition=bottom;labelBackgroundColor=default;verticalAlign=top;aspect=fixed;imageAspect=0;image=https://www.stack-ai.com/_next/static/media/stack.77c3de30.svg;" vertex="1" parent="1">
          <mxGeometry x="480" y="347.3" width="120.43" height="27.7" as="geometry" />
        </mxCell>
        <mxCell id="UMgLE48t6Uz4dZOfTjDk-39" value="" style="shape=image;verticalLabelPosition=bottom;labelBackgroundColor=default;verticalAlign=top;aspect=fixed;imageAspect=0;image=https://s5.ezgif.com/tmp/ezgif-5ebaab988b0a0b.png;" vertex="1" parent="1">
          <mxGeometry x="425" y="410" width="88.42" height="35" as="geometry" />
        </mxCell>
        <mxCell id="UMgLE48t6Uz4dZOfTjDk-40" value="" style="shape=image;verticalLabelPosition=bottom;labelBackgroundColor=default;verticalAlign=top;aspect=fixed;imageAspect=0;image=https://creator.voiceflow.com/assets/Voiceflow-wordmark-dark-MWXn_xqR.svg;" vertex="1" parent="1">
          <mxGeometry x="513.4200000000001" y="400.38" width="109.59" height="20" as="geometry" />
        </mxCell>
        <mxCell id="UMgLE48t6Uz4dZOfTjDk-41" value="" style="shape=image;verticalLabelPosition=bottom;labelBackgroundColor=default;verticalAlign=top;aspect=fixed;imageAspect=0;image=https://upload.wikimedia.org/wikipedia/commons/thumb/8/8a/Claude_AI_logo.svg/690px-Claude_AI_logo.svg.png;" vertex="1" parent="1">
          <mxGeometry x="505.43" y="466" width="117.58" height="25.39" as="geometry" />
        </mxCell>
        <mxCell id="UMgLE48t6Uz4dZOfTjDk-42" value="Computer Use" style="text;html=1;align=center;verticalAlign=middle;whiteSpace=wrap;rounded=0;fontStyle=1" vertex="1" parent="1">
          <mxGeometry x="521.68" y="491.39000000000004" width="85.45" height="30" as="geometry" />
        </mxCell>
      </root>
    </mxGraphModel>
  </diagram>
</mxfile>
